<svg width="144" height="20" viewBox="0 0 144 20" fill="none" xmlns="http://www.w3.org/2000/svg">
<g clip-path="url(#clip0_394_193)">
<path d="M42.3 6.06C41.3333 5.44667 40.1666 5.14667 38.8 5.14667C37.72 5.14667 36.7933 5.34667 36.0133 5.75333C35.2333 6.16 34.6333 6.74 34.2066 7.50667H34.1133V0H30.5666V16.1667H28.8066V20H32.4466V17.4267H33.4466C33.94 18.2533 34.6066 18.8867 35.4466 19.3333C36.2866 19.78 37.3066 20 38.4933 20C39.9666 20 41.2133 19.6933 42.22 19.0867C43.2266 18.4733 43.9933 17.6133 44.52 16.4933C45.0466 15.3733 45.3066 14.0667 45.3066 12.5733C45.3066 11.08 45.0466 9.75333 44.5333 8.64667C44.02 7.53333 43.2733 6.67333 42.3066 6.06667L42.3 6.06ZM40.7666 15.7733C40.1066 16.54 39.1333 16.9267 37.8466 16.9267C36.72 16.9267 35.8133 16.6067 35.1333 15.96C34.4533 15.32 34.1066 14.44 34.1066 13.3267V11.8C34.1066 10.6867 34.4466 9.81333 35.1333 9.16667C35.8133 8.52667 36.72 8.2 37.8466 8.2C39.1333 8.2 40.1066 8.58667 40.7666 9.35333C41.4266 10.1267 41.7533 11.1933 41.7533 12.5533C41.7533 13.9133 41.4266 14.9867 40.7666 15.7533V15.7733ZM47.5 0H51.0466V20H47.5V0ZM67.5933 5.45333H64.0466V13.4067C64.0466 14.5 63.7266 15.3533 63.0933 15.9533C62.46 16.5533 61.5466 16.86 60.3533 16.86C59.2266 16.86 58.38 16.58 57.8066 16.0133C57.2333 15.4467 56.9466 14.6133 56.9466 13.5V5.45333H53.4V14.2133C53.4 15.9933 53.9266 17.4 54.98 18.44C56.0333 19.48 57.54 20 59.4933 20C60.76 20 61.8133 19.78 62.6466 19.3467C63.48 18.9133 64.1733 18.28 64.7333 17.4533H65.7333V20H69.3733V16.1933H67.5866V5.45333H67.5933ZM80.94 5.98667C79.8933 5.42667 78.64 5.14 77.18 5.14C75.72 5.14 74.3866 5.44 73.2733 6.03333C72.16 6.62667 71.3066 7.48 70.7 8.58C70.0933 9.68 69.7933 11 69.7933 12.52C69.7933 14.04 70.1 15.3667 70.7066 16.4867C71.32 17.6067 72.1866 18.4733 73.3133 19.08C74.44 19.6933 75.7733 19.9933 77.3133 19.9933C79.14 19.9933 80.6466 19.5667 81.8466 18.72C83.0466 17.8733 83.8133 16.6933 84.1466 15.1867H80.5733C80.3533 15.84 79.9666 16.3267 79.42 16.6533C78.8733 16.98 78.16 17.14 77.2866 17.14C76.1133 17.14 75.1733 16.82 74.4666 16.1733C73.76 15.5333 73.34 14.6067 73.2133 13.4H84.2133V12.16C84.2133 10.7133 83.9266 9.46667 83.3533 8.41333C82.78 7.36 81.9733 6.54667 80.9266 5.98667H80.94ZM73.3 11C73.52 10.0333 73.9666 9.28667 74.6333 8.76C75.3 8.23333 76.1466 7.97333 77.18 7.97333C78.2133 7.97333 79.06 8.23333 79.68 8.74667C80.3 9.26 80.68 10.0133 80.82 11H73.2933H73.3ZM94.96 11.2867L91.7466 10.6667C91.16 10.5533 90.7333 10.3867 90.46 10.1667C90.1933 9.94667 90.0533 9.65333 90.0533 9.28667C90.0533 8.79333 90.2666 8.42 90.6933 8.16667C91.12 7.91333 91.74 7.78667 92.5533 7.78667C93.46 7.78667 94.1533 7.94667 94.64 8.27333C95.1266 8.6 95.4533 9.12 95.6266 9.83333H99.0533C98.9266 8.34 98.3133 7.18667 97.2066 6.36667C96.1 5.54667 94.6133 5.14 92.74 5.14C90.8666 5.14 89.4 5.54 88.3333 6.34C87.2666 7.14 86.74 8.22 86.74 9.56667C86.74 11.66 88.14 12.98 90.9333 13.52L94.0733 14.1133C94.7266 14.24 95.1866 14.42 95.4666 14.66C95.7466 14.9 95.88 15.2333 95.88 15.66C95.88 16.7267 94.9666 17.2533 93.14 17.2533C92.06 17.2533 91.2333 17.0733 90.6666 16.72C90.0933 16.36 89.7533 15.8133 89.64 15.0667H86.1866C86.28 16.62 86.9266 17.8333 88.1133 18.7C89.3066 19.5667 90.9333 20 92.9933 20C95.0533 20 96.5266 19.5933 97.5866 18.7867C98.6533 17.98 99.18 16.8533 99.18 15.4067C99.18 14.28 98.84 13.38 98.1533 12.7133C97.4733 12.0467 96.4 11.5733 94.94 11.2867H94.96ZM109.533 5.45333C108.453 5.45333 107.52 5.65333 106.727 6.06C105.933 6.46667 105.307 7.05333 104.847 7.83333H104.753V0H101.207V20H104.753V12.0467C104.753 10.92 105.053 10.06 105.66 9.47333C106.26 8.88667 107.147 8.59333 108.3 8.59333C109.453 8.59333 110.34 8.88667 110.94 9.47333C111.54 10.06 111.847 10.92 111.847 12.0467V20H115.393V11.38C115.393 9.58667 114.867 8.15333 113.813 7.07333C112.76 5.99333 111.333 5.45333 109.54 5.45333H109.533ZM119.2 0.14C118.647 0.14 118.173 0.333333 117.787 0.726667C117.4 1.11333 117.2 1.58667 117.2 2.14667C117.2 2.70667 117.393 3.17333 117.787 3.56667C118.173 3.95333 118.647 4.14667 119.2 4.14667C119.753 4.14667 120.227 3.95333 120.613 3.56667C121 3.18 121.2 2.70667 121.2 2.14667C121.2 1.58667 121.007 1.12 120.613 0.726667C120.227 0.34 119.753 0.14 119.2 0.14ZM117.44 5.71333H120.987V20H117.44V5.71333ZM126.287 0.713333C125.753 1.18667 125.487 1.92667 125.487 2.92667V5.71333H122.793V8.47333H125.46V20H129.007V8.47333H132.267V5.71333H128.96V2.76H132.553V0H128.507C127.553 0 126.813 0.24 126.28 0.713333H126.287ZM140.267 17.22V8.49333H143.667V5.73333H140.22V1.44667H136.747V5.72667H134.2V8.48667H136.72V17.12C136.72 18.0867 136.98 18.8067 137.493 19.2867C138.007 19.76 138.733 20 139.667 20H143.993V17.22H140.26H140.267Z" fill="#EFF1F6"/>
<path d="M12 16H16V20H12V16ZM16 12H20V16H16V12ZM20 8H24V12H20V8ZM16 4H20V8H16V4ZM12 0H16V4H12V0ZM0 16H4V20H0V16ZM4 12H8V16H4V12ZM8 8H12V12H8V8ZM4 4H8V8H4V4ZM0 0H4V4H0V0Z" fill="#00FFFF"/>
</g>
<defs>
<clipPath id="clip0_394_193">
<rect width="144" height="20" fill="white"/>
</clipPath>
</defs>
</svg>
