<svg width="750" height="1000" viewBox="0 0 750 1000" fill="none" xmlns="http://www.w3.org/2000/svg">
<path d="M263.889 550.926H300.926V587.963H263.889V550.926Z" fill="white"/>
<path d="M300.926 513.888H337.963V550.926H300.926V513.888Z" fill="white"/>
<path d="M337.963 476.851H375V513.888L337.963 513.888V476.851Z" fill="white"/>
<path d="M300.926 439.814H337.963V476.851H300.926V439.814Z" fill="white"/>
<path d="M263.889 402.777H300.926V439.814H263.889V402.777Z" fill="white"/>
<path d="M375 550.925H412.037V587.962H375V550.925Z" fill="white"/>
<path d="M412.037 513.888H449.074V550.925L412.037 550.925L412.037 513.888Z" fill="white"/>
<path d="M449.074 476.85H486.111V513.887L449.074 513.888L449.074 476.85Z" fill="white"/>
<path d="M412.037 439.813H449.074L449.074 476.85L412.037 476.85V439.813Z" fill="white"/>
<path d="M375 402.776H412.037L412.037 439.813L375 439.813V402.776Z" fill="white"/>
</svg>
