<svg width="750" height="1000" viewBox="0 0 750 1000" fill="none" xmlns="http://www.w3.org/2000/svg">
<path opacity="0.4" d="M675.915 933.398C675.08 933.398 674.342 932.798 674.193 931.949C674.027 930.997 674.664 930.089 675.616 929.923C681.886 928.831 686.833 923.885 687.925 917.617C688.09 916.663 689.01 916.026 689.948 916.194C690.9 916.36 691.539 917.265 691.371 918.219C690.027 925.94 683.937 932.028 676.216 933.374C676.113 933.393 676.013 933.4 675.913 933.4L675.915 933.398Z" fill="#00C7E6"/>
<path opacity="0.4" d="M670.087 933.398C669.987 933.398 669.886 933.391 669.784 933.372C662.063 932.028 655.975 925.936 654.629 918.217C654.463 917.265 655.1 916.357 656.052 916.192C657.004 916.024 657.909 916.663 658.075 917.615C659.167 923.885 664.114 928.831 670.381 929.923C671.333 930.089 671.972 930.994 671.804 931.946C671.657 932.798 670.918 933.398 670.082 933.398H670.087Z" fill="#00C7E6"/>
<path opacity="0.4" d="M656.354 913.833C656.254 913.833 656.154 913.826 656.053 913.807C655.101 913.642 654.462 912.736 654.63 911.782C655.974 904.061 662.062 897.973 669.783 896.627C670.749 896.466 671.64 897.098 671.808 898.05C671.974 899.002 671.337 899.91 670.385 900.076C664.115 901.168 659.168 906.114 658.076 912.382C657.929 913.233 657.19 913.833 656.354 913.833Z" fill="#00C7E6"/>
<path d="M689.646 913.833C688.811 913.833 688.073 913.233 687.924 912.384C686.832 906.114 681.885 901.167 675.618 900.075C674.666 899.91 674.027 899.004 674.195 898.052C674.36 897.1 675.263 896.459 676.22 896.629C683.941 897.973 690.029 904.063 691.375 911.784C691.541 912.736 690.904 913.644 689.952 913.809C689.849 913.828 689.749 913.835 689.648 913.835L689.646 913.833Z" fill="#00C7E6"/>
<path d="M673 909.166C669.782 909.166 667.167 911.781 667.167 914.999C667.167 918.217 669.782 920.832 673 920.832C676.218 920.832 678.833 918.217 678.833 914.999C678.833 911.781 676.218 909.166 673 909.166Z" fill="#00C7E6"/>
</svg>
