<svg width="750" height="1000" viewBox="0 0 750 1000" fill="none" xmlns="http://www.w3.org/2000/svg">
<path d="M675.912 933.399C675.077 933.399 674.34 932.799 674.191 931.95C674.025 930.998 674.662 930.09 675.614 929.924C681.883 928.832 686.83 923.886 687.922 917.618C688.088 916.664 689.007 916.027 689.945 916.195C690.897 916.361 691.536 917.266 691.368 918.22C690.024 925.941 683.934 932.029 676.213 933.375C676.111 933.394 676.01 933.401 675.91 933.401L675.912 933.399Z" fill="#E6D700"/>
<path d="M670.084 933.398C669.984 933.398 669.884 933.391 669.781 933.373C662.06 932.029 655.972 925.936 654.626 918.218C654.46 917.266 655.097 916.358 656.049 916.192C657.001 916.024 657.907 916.664 658.072 917.616C659.164 923.885 664.111 928.832 670.378 929.924C671.33 930.09 671.97 930.995 671.802 931.947C671.655 932.799 670.915 933.398 670.08 933.398H670.084Z" fill="#E6D700"/>
<path opacity="0.4" d="M656.353 913.834C656.252 913.834 656.152 913.827 656.052 913.808C655.1 913.642 654.46 912.737 654.628 911.783C655.972 904.062 662.06 897.974 669.781 896.628C670.747 896.467 671.638 897.099 671.806 898.051C671.972 899.003 671.335 899.911 670.383 900.076C664.113 901.168 659.167 906.115 658.075 912.382C657.928 913.234 657.188 913.834 656.353 913.834Z" fill="#E6D700"/>
<path d="M689.644 913.833C688.808 913.833 688.071 913.234 687.922 912.384C686.83 906.115 681.883 901.168 675.616 900.076C674.664 899.91 674.024 899.005 674.192 898.053C674.358 897.101 675.261 896.459 676.218 896.63C683.939 897.974 690.026 904.064 691.373 911.785C691.538 912.737 690.901 913.644 689.949 913.81C689.847 913.829 689.746 913.836 689.646 913.836L689.644 913.833Z" fill="#E6D700"/>
<path d="M672.999 909.167C669.782 909.167 667.166 911.782 667.166 915C667.166 918.218 669.782 920.833 672.999 920.833C676.217 920.833 678.833 918.218 678.833 915C678.833 911.782 676.217 909.167 672.999 909.167Z" fill="#E6D700"/>
</svg>
