<svg width="750" height="1000" viewBox="0 0 750 1000" fill="none" xmlns="http://www.w3.org/2000/svg">
<path d="M675.914 933.399C675.078 933.399 674.341 932.799 674.192 931.95C674.026 930.998 674.663 930.09 675.615 929.924C681.885 928.832 686.831 923.886 687.923 917.618C688.089 916.664 689.008 916.027 689.946 916.195C690.898 916.361 691.538 917.266 691.37 918.22C690.026 925.941 683.936 932.029 676.215 933.375C676.112 933.394 676.012 933.401 675.911 933.401L675.914 933.399Z" fill="#00E66B"/>
<path opacity="0.4" d="M670.086 933.398C669.985 933.398 669.885 933.391 669.782 933.373C662.061 932.029 655.974 925.936 654.627 918.218C654.462 917.266 655.099 916.358 656.051 916.192C657.003 916.024 657.908 916.664 658.074 917.616C659.166 923.885 664.112 928.832 670.38 929.924C671.332 930.09 671.971 930.995 671.803 931.947C671.656 932.799 670.916 933.398 670.081 933.398H670.086Z" fill="#00E66B"/>
<path opacity="0.4" d="M656.353 913.834C656.253 913.834 656.153 913.827 656.052 913.808C655.1 913.642 654.461 912.737 654.629 911.782C655.973 904.061 662.06 897.974 669.781 896.627C670.747 896.466 671.639 897.099 671.807 898.051C671.973 899.003 671.335 899.911 670.383 900.076C664.114 901.168 659.167 906.115 658.075 912.382C657.928 913.234 657.189 913.834 656.353 913.834Z" fill="#00E66B"/>
<path d="M689.645 913.833C688.81 913.833 688.072 913.234 687.923 912.384C686.831 906.115 681.884 901.168 675.617 900.076C674.665 899.91 674.026 899.005 674.194 898.053C674.359 897.101 675.262 896.459 676.219 896.63C683.94 897.974 690.028 904.064 691.374 911.785C691.54 912.737 690.903 913.644 689.951 913.81C689.848 913.829 689.748 913.836 689.647 913.836L689.645 913.833Z" fill="#00E66B"/>
<path d="M673 909.167C669.782 909.167 667.167 911.782 667.167 915C667.167 918.218 669.782 920.833 673 920.833C676.218 920.833 678.833 918.218 678.833 915C678.833 911.782 676.218 909.167 673 909.167Z" fill="#00E66B"/>
</svg>
