<svg width="750" height="1000" viewBox="0 0 750 1000" fill="none" xmlns="http://www.w3.org/2000/svg">
<path d="M675.912 933.397C675.077 933.397 674.34 932.797 674.191 931.948C674.025 930.996 674.662 930.088 675.614 929.923C681.883 928.831 686.83 923.884 687.922 917.617C688.088 916.662 689.007 916.026 689.945 916.194C690.897 916.359 691.536 917.264 691.368 918.219C690.024 925.94 683.934 932.027 676.213 933.374C676.111 933.392 676.01 933.399 675.91 933.399L675.912 933.397Z" fill="#FF285A"/>
<path d="M670.084 933.398C669.984 933.398 669.884 933.391 669.781 933.372C662.06 932.028 655.972 925.936 654.626 918.217C654.46 917.265 655.097 916.357 656.049 916.192C657.001 916.024 657.907 916.663 658.072 917.615C659.164 923.885 664.111 928.831 670.378 929.923C671.33 930.089 671.97 930.994 671.802 931.946C671.655 932.798 670.915 933.398 670.08 933.398H670.084Z" fill="#FF285A"/>
<path d="M656.353 913.833C656.252 913.833 656.152 913.826 656.052 913.807C655.1 913.642 654.46 912.736 654.628 911.782C655.972 904.061 662.06 897.973 669.781 896.627C670.747 896.466 671.638 897.098 671.806 898.05C671.972 899.002 671.335 899.91 670.383 900.076C664.113 901.168 659.167 906.114 658.075 912.382C657.928 913.233 657.188 913.833 656.353 913.833Z" fill="#FF285A"/>
<path d="M689.644 913.833C688.808 913.833 688.071 913.233 687.922 912.384C686.83 906.114 681.883 901.167 675.616 900.075C674.664 899.91 674.024 899.004 674.192 898.052C674.358 897.1 675.261 896.459 676.218 896.629C683.939 897.973 690.026 904.063 691.373 911.784C691.538 912.736 690.901 913.644 689.949 913.809C689.847 913.828 689.746 913.835 689.646 913.835L689.644 913.833Z" fill="#FF285A"/>
<path d="M672.999 909.166C669.782 909.166 667.166 911.781 667.166 914.999C667.166 918.217 669.782 920.832 672.999 920.832C676.217 920.832 678.833 918.217 678.833 914.999C678.833 911.781 676.217 909.166 672.999 909.166Z" fill="#FF285A"/>
</svg>
