<svg width="750" height="1000" viewBox="0 0 750 1000" fill="none" xmlns="http://www.w3.org/2000/svg">
<rect x="56" y="64" width="150" height="150" rx="24" fill="#DDEAE0" fill-opacity="0.05"/>
<path d="M147.1 160.333H136.7V171H147.1V160.333Z" fill="#DDEAE0"/>
<path d="M126.3 160.333H115.9V171H126.3V160.333Z" fill="#DDEAE0"/>
<path d="M136.702 149.666H126.302V160.333H136.702V149.666Z" fill="#DDEAE0"/>
<path d="M136.702 139H126.302V149.667H136.702V139Z" fill="#DDEAE0"/>
<path d="M136.702 128.333H126.302V139H136.702V128.333Z" fill="#DDEAE0"/>
<path d="M126.3 117.667H115.9V128.334H126.3V117.667Z" fill="#DDEAE0"/>
<path d="M147.1 117.667H136.7V128.334H147.1V117.667Z" fill="#DDEAE0"/>
<path d="M136.702 107H126.302V117.667H136.702V107Z" fill="#DDEAE0"/>
<path d="M115.901 149.667H105.5V160.333H115.901V149.667Z" fill="#DDEAE0"/>
<path d="M157.5 149.666H147.1V160.333H157.5V149.666Z" fill="#DDEAE0"/>
<path d="M81.476 307H77.876C77.684 307 77.516 306.952 77.372 306.856C77.252 306.736 77.168 306.58 77.12 306.388L76.004 302.284H68.048L66.932 306.388C66.884 306.58 66.788 306.736 66.644 306.856C66.524 306.952 66.368 307 66.176 307H62.54L69.848 281.368C69.944 280.984 70.184 280.792 70.568 280.792H73.484C73.868 280.792 74.12 280.984 74.24 281.368L81.476 307ZM74.924 298.36L72.044 287.776L69.128 298.36H74.924ZM84.9911 281.404C84.9911 281.188 85.0631 281.008 85.2071 280.864C85.3511 280.72 85.5311 280.648 85.7471 280.648H88.2311C88.5911 280.648 88.8791 280.816 89.0951 281.152L99.6791 298.684V281.404C99.6791 281.188 99.7511 281.008 99.8951 280.864C100.039 280.72 100.231 280.648 100.471 280.648H103.063C103.279 280.648 103.459 280.72 103.603 280.864C103.747 281.008 103.819 281.188 103.819 281.404V306.388C103.819 306.604 103.747 306.784 103.603 306.928C103.459 307.072 103.279 307.144 103.063 307.144H100.615C100.231 307.144 99.9311 306.976 99.7151 306.64L89.1311 289.108V306.388C89.1311 306.604 89.0591 306.784 88.9151 306.928C88.7711 307.072 88.5911 307.144 88.3751 307.144H85.7471C85.5311 307.144 85.3511 307.072 85.2071 306.928C85.0631 306.784 84.9911 306.604 84.9911 306.388V281.404ZM127.56 300.304C127.56 301.36 127.392 302.32 127.056 303.184C126.72 304.048 126.24 304.792 125.616 305.416C124.992 306.04 124.248 306.52 123.384 306.856C122.52 307.192 121.56 307.36 120.504 307.36H115.788C114.732 307.36 113.772 307.192 112.908 306.856C112.044 306.52 111.3 306.04 110.676 305.416C110.052 304.792 109.572 304.048 109.236 303.184C108.9 302.32 108.732 301.36 108.732 300.304V287.308C108.732 286.252 108.9 285.292 109.236 284.428C109.572 283.564 110.052 282.82 110.676 282.196C111.3 281.572 112.044 281.092 112.908 280.756C113.772 280.42 114.732 280.252 115.788 280.252H120.504C121.56 280.252 122.52 280.42 123.384 280.756C124.248 281.092 124.992 281.572 125.616 282.196C126.24 282.82 126.72 283.564 127.056 284.428C127.392 285.292 127.56 286.252 127.56 287.308V288.424C127.56 288.76 127.392 288.928 127.056 288.928H123.96C123.624 288.928 123.456 288.76 123.456 288.424V287.2C123.456 286.288 123.18 285.568 122.628 285.04C122.1 284.488 121.38 284.212 120.468 284.212H115.824C114.936 284.212 114.216 284.488 113.664 285.04C113.136 285.568 112.872 286.288 112.872 287.2V300.448C112.872 301.336 113.136 302.056 113.664 302.608C114.216 303.136 114.936 303.4 115.824 303.4H120.468C121.38 303.4 122.1 303.136 122.628 302.608C123.18 302.056 123.456 301.336 123.456 300.448V299.152C123.456 298.792 123.624 298.612 123.96 298.612H127.056C127.392 298.612 127.56 298.792 127.56 299.152V300.304ZM132.486 281.332C132.486 280.876 132.714 280.648 133.17 280.648H135.942C136.398 280.648 136.626 280.876 136.626 281.332V291.916H147.174V281.332C147.174 280.876 147.402 280.648 147.858 280.648H150.63C151.086 280.648 151.314 280.876 151.314 281.332V306.46C151.314 306.916 151.086 307.144 150.63 307.144H147.858C147.402 307.144 147.174 306.916 147.174 306.46V295.876H136.626V306.46C136.626 306.916 136.398 307.144 135.942 307.144H133.17C132.714 307.144 132.486 306.916 132.486 306.46V281.332ZM156.226 287.308C156.226 286.252 156.394 285.292 156.73 284.428C157.066 283.564 157.546 282.82 158.17 282.196C158.794 281.572 159.538 281.092 160.402 280.756C161.266 280.42 162.226 280.252 163.282 280.252H167.998C169.054 280.252 170.014 280.42 170.878 280.756C171.742 281.092 172.486 281.572 173.11 282.196C173.734 282.82 174.214 283.564 174.55 284.428C174.886 285.292 175.054 286.252 175.054 287.308V300.304C175.054 301.36 174.886 302.32 174.55 303.184C174.214 304.048 173.734 304.792 173.11 305.416C172.486 306.04 171.742 306.52 170.878 306.856C170.014 307.192 169.054 307.36 167.998 307.36H163.282C162.226 307.36 161.266 307.192 160.402 306.856C159.538 306.52 158.794 306.04 158.17 305.416C157.546 304.792 157.066 304.048 156.73 303.184C156.394 302.32 156.226 301.36 156.226 300.304V287.308ZM167.962 303.4C168.874 303.4 169.594 303.136 170.122 302.608C170.674 302.056 170.95 301.336 170.95 300.448V287.2C170.95 286.288 170.674 285.568 170.122 285.04C169.594 284.488 168.874 284.212 167.962 284.212H163.318C162.43 284.212 161.71 284.488 161.158 285.04C160.63 285.568 160.366 286.288 160.366 287.2V300.448C160.366 301.336 160.63 302.056 161.158 302.608C161.71 303.136 162.43 303.4 163.318 303.4H167.962ZM198.808 306.352C198.808 306.856 198.556 307.108 198.052 307.108H195.46C194.956 307.108 194.704 306.856 194.704 306.352V303.328L189.124 295.876H184.12V306.388C184.12 306.604 184.048 306.784 183.904 306.928C183.76 307.072 183.58 307.144 183.364 307.144H180.736C180.52 307.144 180.34 307.072 180.196 306.928C180.052 306.784 179.98 306.604 179.98 306.388V281.548C179.98 281.332 180.052 281.152 180.196 281.008C180.34 280.864 180.52 280.792 180.736 280.792H192.436C193.396 280.792 194.26 280.948 195.028 281.26C195.82 281.548 196.492 281.98 197.044 282.556C197.62 283.108 198.052 283.78 198.34 284.572C198.652 285.34 198.808 286.204 198.808 287.164V289.648C198.808 291.304 198.364 292.672 197.476 293.752C196.612 294.808 195.436 295.468 193.948 295.732L198.484 301.78C198.7 302.068 198.808 302.404 198.808 302.788V306.352ZM184.12 284.752V291.916H192.436C193.132 291.916 193.672 291.712 194.056 291.304C194.464 290.896 194.668 290.344 194.668 289.648V287.02C194.668 286.324 194.464 285.772 194.056 285.364C193.672 284.956 193.132 284.752 192.436 284.752H184.12Z" fill="#DDEAE0"/>
</svg>
