<svg width="750" height="1000" viewBox="0 0 750 1000" fill="none" xmlns="http://www.w3.org/2000/svg">
<rect x="56" y="64" width="150" height="150" rx="24" fill="#69A2F1" fill-opacity="0.05"/>
<path d="M153.858 152.714H144.715V161.857H153.858V152.714Z" fill="#69A2F1"/>
<path d="M117.287 152.714H108.145V161.857H117.287V152.714Z" fill="#69A2F1"/>
<path d="M117.287 143.571H108.145V152.714H117.287V143.571Z" fill="#69A2F1"/>
<path d="M117.287 134.428H108.145V143.571H117.287V134.428Z" fill="#69A2F1"/>
<path d="M108.143 116.143H99V125.285H108.143V116.143Z" fill="#69A2F1"/>
<path d="M126.428 116.143H117.285V125.285H126.428V116.143Z" fill="#69A2F1"/>
<path d="M117.287 116.143H108.145V125.285H117.287V116.143Z" fill="#69A2F1"/>
<path d="M144.713 152.714H135.57V161.857H144.713V152.714Z" fill="#69A2F1"/>
<path d="M162.998 143.571H153.855V152.714H162.998V143.571Z" fill="#69A2F1"/>
<path d="M153.858 134.428H144.715V143.571H153.858V134.428Z" fill="#69A2F1"/>
<path d="M144.713 125.285H135.57V134.428H144.713V125.285Z" fill="#69A2F1"/>
<path d="M117.287 125.285H108.145V134.428H117.287V125.285Z" fill="#69A2F1"/>
<path d="M153.858 116.143H144.715V125.285H153.858V116.143Z" fill="#69A2F1"/>
<path d="M162.998 116.143H153.855V125.285H162.998V116.143Z" fill="#69A2F1"/>
<path d="M62.576 281.548C62.576 281.332 62.636 281.152 62.756 281.008C62.9 280.864 63.092 280.792 63.332 280.792H80.648C80.888 280.792 81.068 280.864 81.188 281.008C81.332 281.152 81.404 281.332 81.404 281.548V283.996C81.404 284.5 81.152 284.752 80.648 284.752H74.06V306.388C74.06 306.604 73.988 306.784 73.844 306.928C73.724 307.072 73.544 307.144 73.304 307.144H70.712C70.472 307.144 70.28 307.072 70.136 306.928C70.016 306.784 69.956 306.604 69.956 306.388V284.752H63.332C62.828 284.752 62.576 284.5 62.576 283.996V281.548ZM102.237 280.792L94.8207 295.984V306.388C94.8207 306.604 94.7487 306.784 94.6048 306.928C94.4608 307.072 94.2807 307.144 94.0647 307.144H91.4367C91.2207 307.144 91.0407 307.072 90.8967 306.928C90.7527 306.784 90.6807 306.604 90.6807 306.388V295.984L83.2647 280.792H87.0447C87.4767 280.792 87.7767 280.996 87.9447 281.404L92.7687 291.196L97.5928 281.404C97.7128 280.996 98.0008 280.792 98.4568 280.792H102.237ZM118.171 280.792C119.131 280.792 119.995 280.948 120.763 281.26C121.555 281.548 122.227 281.98 122.779 282.556C123.355 283.108 123.787 283.78 124.075 284.572C124.387 285.34 124.543 286.204 124.543 287.164V289.648C124.543 291.568 123.955 293.092 122.779 294.22C121.627 295.324 120.091 295.876 118.171 295.876H109.855V306.388C109.855 306.604 109.783 306.784 109.639 306.928C109.495 307.072 109.315 307.144 109.099 307.144H106.471C106.255 307.144 106.075 307.072 105.931 306.928C105.787 306.784 105.715 306.604 105.715 306.388V281.548C105.715 281.332 105.787 281.152 105.931 281.008C106.075 280.864 106.255 280.792 106.471 280.792H118.171ZM109.855 284.752V291.916H118.171C118.867 291.916 119.407 291.712 119.791 291.304C120.199 290.896 120.403 290.344 120.403 289.648V287.02C120.403 286.324 120.199 285.772 119.791 285.364C119.407 284.956 118.867 284.752 118.171 284.752H109.855ZM147.501 280.792C147.717 280.792 147.897 280.864 148.041 281.008C148.185 281.152 148.257 281.332 148.257 281.548V283.996C148.257 284.236 148.185 284.428 148.041 284.572C147.897 284.692 147.717 284.752 147.501 284.752H133.497V291.952H146.781C146.997 291.952 147.177 292.024 147.321 292.168C147.465 292.288 147.537 292.468 147.537 292.708V295.084C147.537 295.324 147.465 295.516 147.321 295.66C147.177 295.78 146.997 295.84 146.781 295.84H133.497V303.04H147.501C147.717 303.04 147.897 303.112 148.041 303.256C148.185 303.376 148.257 303.556 148.257 303.796V306.244C148.257 306.484 148.185 306.676 148.041 306.82C147.897 306.94 147.717 307 147.501 307H130.113C129.897 307 129.717 306.94 129.573 306.82C129.429 306.676 129.357 306.484 129.357 306.244V281.548C129.357 281.332 129.429 281.152 129.573 281.008C129.717 280.864 129.897 280.792 130.113 280.792H147.501ZM166.62 287.2C166.62 286.288 166.344 285.568 165.792 285.04C165.264 284.488 164.556 284.212 163.668 284.212H159.168C158.28 284.212 157.56 284.488 157.008 285.04C156.48 285.568 156.216 286.288 156.216 287.2V288.388C156.216 288.94 156.372 289.432 156.684 289.864C156.996 290.296 157.416 290.596 157.944 290.764L166.548 293.32C167.868 293.704 168.924 294.424 169.716 295.48C170.508 296.536 170.904 297.748 170.904 299.116V300.304C170.904 301.36 170.736 302.32 170.4 303.184C170.064 304.048 169.584 304.792 168.96 305.416C168.336 306.04 167.592 306.52 166.728 306.856C165.864 307.192 164.904 307.36 163.848 307.36H159.312C158.256 307.36 157.284 307.192 156.396 306.856C155.532 306.52 154.788 306.04 154.164 305.416C153.564 304.792 153.096 304.048 152.76 303.184C152.424 302.32 152.256 301.36 152.256 300.304V299.224C152.256 298.816 152.448 298.612 152.832 298.612H155.748C156.156 298.612 156.36 298.816 156.36 299.224V300.448C156.36 301.336 156.624 302.056 157.152 302.608C157.704 303.136 158.436 303.4 159.348 303.4H163.812C164.724 303.4 165.444 303.136 165.972 302.608C166.5 302.056 166.764 301.336 166.764 300.448V299.26C166.764 298.708 166.608 298.216 166.296 297.784C165.984 297.352 165.564 297.052 165.036 296.884L156.432 294.328C155.112 293.944 154.056 293.224 153.264 292.168C152.472 291.112 152.076 289.9 152.076 288.532V287.308C152.076 286.252 152.244 285.292 152.58 284.428C152.916 283.564 153.396 282.82 154.02 282.196C154.644 281.572 155.388 281.092 156.252 280.756C157.116 280.42 158.076 280.252 159.132 280.252H163.668C164.724 280.252 165.684 280.42 166.548 280.756C167.436 281.092 168.18 281.572 168.78 282.196C169.404 282.82 169.884 283.564 170.22 284.428C170.556 285.292 170.724 286.252 170.724 287.308V288.352C170.724 288.736 170.532 288.928 170.148 288.928H167.232C166.824 288.928 166.62 288.736 166.62 288.352V287.2ZM194.267 300.304C194.267 301.36 194.099 302.32 193.763 303.184C193.427 304.048 192.947 304.792 192.323 305.416C191.699 306.04 190.955 306.52 190.091 306.856C189.227 307.192 188.267 307.36 187.211 307.36H182.495C181.439 307.36 180.479 307.192 179.615 306.856C178.751 306.52 178.007 306.04 177.383 305.416C176.759 304.792 176.279 304.048 175.943 303.184C175.607 302.32 175.439 301.36 175.439 300.304V287.308C175.439 286.252 175.607 285.292 175.943 284.428C176.279 283.564 176.759 282.82 177.383 282.196C178.007 281.572 178.751 281.092 179.615 280.756C180.479 280.42 181.439 280.252 182.495 280.252H187.211C188.267 280.252 189.227 280.42 190.091 280.756C190.955 281.092 191.699 281.572 192.323 282.196C192.947 282.82 193.427 283.564 193.763 284.428C194.099 285.292 194.267 286.252 194.267 287.308V288.424C194.267 288.76 194.099 288.928 193.763 288.928H190.667C190.331 288.928 190.163 288.76 190.163 288.424V287.2C190.163 286.288 189.887 285.568 189.335 285.04C188.807 284.488 188.087 284.212 187.175 284.212H182.531C181.643 284.212 180.923 284.488 180.371 285.04C179.843 285.568 179.579 286.288 179.579 287.2V300.448C179.579 301.336 179.843 302.056 180.371 302.608C180.923 303.136 181.643 303.4 182.531 303.4H187.175C188.087 303.4 188.807 303.136 189.335 302.608C189.887 302.056 190.163 301.336 190.163 300.448V299.152C190.163 298.792 190.331 298.612 190.667 298.612H193.763C194.099 298.612 194.267 298.792 194.267 299.152V300.304ZM207.545 295.876H203.333V306.388C203.333 306.604 203.261 306.784 203.117 306.928C202.973 307.072 202.793 307.144 202.577 307.144H199.949C199.733 307.144 199.553 307.072 199.409 306.928C199.265 306.784 199.193 306.604 199.193 306.388V281.548C199.193 281.332 199.265 281.152 199.409 281.008C199.553 280.864 199.733 280.792 199.949 280.792H211.649C212.609 280.792 213.473 280.948 214.241 281.26C215.033 281.548 215.705 281.98 216.257 282.556C216.833 283.108 217.265 283.78 217.553 284.572C217.865 285.34 218.021 286.204 218.021 287.164V289.648C218.021 291.52 217.469 293.008 216.365 294.112C215.261 295.216 213.797 295.804 211.973 295.876L218.381 307.144H214.673C214.457 307.144 214.241 307.084 214.025 306.964C213.833 306.82 213.677 306.652 213.557 306.46L207.545 295.876ZM203.333 284.752V291.916H211.649C212.345 291.916 212.885 291.712 213.269 291.304C213.677 290.896 213.881 290.344 213.881 289.648V287.02C213.881 286.324 213.677 285.772 213.269 285.364C212.885 284.956 212.345 284.752 211.649 284.752H203.333ZM228.102 303.04V284.752H221.442C220.938 284.752 220.686 284.5 220.686 283.996V281.548C220.686 281.332 220.746 281.152 220.866 281.008C221.01 280.864 221.202 280.792 221.442 280.792H238.794C239.034 280.792 239.226 280.864 239.37 281.008C239.514 281.152 239.586 281.332 239.586 281.548V283.996C239.586 284.5 239.322 284.752 238.794 284.752H232.206V303.04H238.794C239.322 303.04 239.586 303.292 239.586 303.796V306.244C239.586 306.748 239.322 307 238.794 307H221.442C220.938 307 220.686 306.748 220.686 306.244V303.796C220.686 303.292 220.938 303.04 221.442 303.04H228.102ZM255.522 280.792C256.482 280.792 257.346 280.948 258.114 281.26C258.906 281.548 259.578 281.98 260.13 282.556C260.706 283.108 261.138 283.78 261.426 284.572C261.738 285.34 261.894 286.204 261.894 287.164V289.648C261.894 291.568 261.306 293.092 260.13 294.22C258.978 295.324 257.442 295.876 255.522 295.876H247.206V306.388C247.206 306.604 247.134 306.784 246.99 306.928C246.846 307.072 246.666 307.144 246.45 307.144H243.822C243.606 307.144 243.426 307.072 243.282 306.928C243.138 306.784 243.066 306.604 243.066 306.388V281.548C243.066 281.332 243.138 281.152 243.282 281.008C243.426 280.864 243.606 280.792 243.822 280.792H255.522ZM247.206 284.752V291.916H255.522C256.218 291.916 256.758 291.712 257.142 291.304C257.55 290.896 257.754 290.344 257.754 289.648V287.02C257.754 286.324 257.55 285.772 257.142 285.364C256.758 284.956 256.218 284.752 255.522 284.752H247.206ZM264.841 281.548C264.841 281.332 264.901 281.152 265.021 281.008C265.165 280.864 265.357 280.792 265.597 280.792H282.913C283.153 280.792 283.333 280.864 283.453 281.008C283.597 281.152 283.669 281.332 283.669 281.548V283.996C283.669 284.5 283.417 284.752 282.913 284.752H276.325V306.388C276.325 306.604 276.253 306.784 276.109 306.928C275.989 307.072 275.809 307.144 275.569 307.144H272.977C272.737 307.144 272.545 307.072 272.401 306.928C272.281 306.784 272.221 306.604 272.221 306.388V284.752H265.597C265.093 284.752 264.841 284.5 264.841 283.996V281.548Z" fill="#69A2F1"/>
</svg>
