<svg width="750" height="1000" viewBox="0 0 750 1000" fill="none" xmlns="http://www.w3.org/2000/svg">
<rect x="56" y="64" width="150" height="150" rx="24" fill="#FFAD66" fill-opacity="0.05"/>
<path d="M153.858 152.715H144.715V161.858H153.858V152.715Z" fill="#FFAD66"/>
<path d="M108.143 152.715H99V161.858H108.143V152.715Z" fill="#FFAD66"/>
<path d="M108.143 143.57H99V152.713H108.143V143.57Z" fill="#FFAD66"/>
<path d="M108.143 134.428H99V143.571H108.143V134.428Z" fill="#FFAD66"/>
<path d="M108.143 116.143H99V125.285H108.143V116.143Z" fill="#FFAD66"/>
<path d="M126.428 116.142H117.285V125.285H126.428V116.142Z" fill="#FFAD66"/>
<path d="M117.287 116.142H108.145V125.285H117.287V116.142Z" fill="#FFAD66"/>
<path d="M144.713 152.715H135.57V161.858H144.713V152.715Z" fill="#FFAD66"/>
<path d="M162.998 143.57H153.855V152.713H162.998V143.57Z" fill="#FFAD66"/>
<path d="M153.858 134.428H144.715V143.571H153.858V134.428Z" fill="#FFAD66"/>
<path d="M144.713 125.285H135.57V134.428H144.713V125.285Z" fill="#FFAD66"/>
<path d="M108.143 125.285H99V134.428H108.143V125.285Z" fill="#FFAD66"/>
<path d="M153.858 116.142H144.715V125.285H153.858V116.142Z" fill="#FFAD66"/>
<path d="M162.998 116.142H153.855V125.285H162.998V116.142Z" fill="#FFAD66"/>
<path d="M126.428 152.715H117.285V161.858H126.428V152.715Z" fill="#FFAD66"/>
<path d="M126.428 143.57H117.285V152.713H126.428V143.57Z" fill="#FFAD66"/>
<path d="M117.287 134.428H108.145V143.571H117.287V134.428Z" fill="#FFAD66"/>
<path d="M126.428 125.285H117.285V134.428H126.428V125.285Z" fill="#FFAD66"/>
<path d="M72.584 295.876H68.372V306.388C68.372 306.604 68.3 306.784 68.156 306.928C68.012 307.072 67.832 307.144 67.616 307.144H64.988C64.772 307.144 64.592 307.072 64.448 306.928C64.304 306.784 64.232 306.604 64.232 306.388V281.548C64.232 281.332 64.304 281.152 64.448 281.008C64.592 280.864 64.772 280.792 64.988 280.792H76.688C77.648 280.792 78.512 280.948 79.28 281.26C80.072 281.548 80.744 281.98 81.296 282.556C81.872 283.108 82.304 283.78 82.592 284.572C82.904 285.34 83.06 286.204 83.06 287.164V289.648C83.06 291.52 82.508 293.008 81.404 294.112C80.3 295.216 78.836 295.804 77.012 295.876L83.42 307.144H79.712C79.496 307.144 79.28 307.084 79.064 306.964C78.872 306.82 78.716 306.652 78.596 306.46L72.584 295.876ZM68.372 284.752V291.916H76.688C77.384 291.916 77.924 291.712 78.308 291.304C78.716 290.896 78.92 290.344 78.92 289.648V287.02C78.92 286.324 78.716 285.772 78.308 285.364C77.924 284.956 77.384 284.752 76.688 284.752H68.372ZM90.4777 280.648C90.6937 280.648 90.8737 280.72 91.0177 280.864C91.1617 281.008 91.2337 281.188 91.2337 281.404V300.448C91.2337 301.36 91.4977 302.092 92.0257 302.644C92.5777 303.172 93.2977 303.436 94.1857 303.436H98.8297C99.7417 303.436 100.462 303.172 100.99 302.644C101.542 302.092 101.818 301.36 101.818 300.448V281.404C101.818 281.188 101.878 281.008 101.998 280.864C102.142 280.72 102.334 280.648 102.574 280.648H105.166C105.406 280.648 105.586 280.72 105.706 280.864C105.85 281.008 105.922 281.188 105.922 281.404V300.34C105.922 301.396 105.754 302.356 105.418 303.22C105.082 304.084 104.602 304.828 103.978 305.452C103.354 306.076 102.61 306.556 101.746 306.892C100.882 307.228 99.9217 307.396 98.8657 307.396H94.1497C93.0937 307.396 92.1337 307.228 91.2697 306.892C90.4057 306.556 89.6617 306.076 89.0377 305.452C88.4137 304.828 87.9337 304.084 87.5977 303.22C87.2617 302.356 87.0937 301.396 87.0937 300.34V281.404C87.0937 281.188 87.1657 281.008 87.3097 280.864C87.4537 280.72 87.6457 280.648 87.8857 280.648H90.4777ZM125.032 287.2C125.032 286.288 124.756 285.568 124.204 285.04C123.676 284.488 122.968 284.212 122.08 284.212H117.58C116.692 284.212 115.972 284.488 115.42 285.04C114.892 285.568 114.628 286.288 114.628 287.2V288.388C114.628 288.94 114.784 289.432 115.096 289.864C115.408 290.296 115.828 290.596 116.356 290.764L124.96 293.32C126.28 293.704 127.336 294.424 128.128 295.48C128.92 296.536 129.316 297.748 129.316 299.116V300.304C129.316 301.36 129.148 302.32 128.812 303.184C128.476 304.048 127.996 304.792 127.372 305.416C126.748 306.04 126.004 306.52 125.14 306.856C124.276 307.192 123.316 307.36 122.26 307.36H117.724C116.668 307.36 115.696 307.192 114.808 306.856C113.944 306.52 113.2 306.04 112.576 305.416C111.976 304.792 111.508 304.048 111.172 303.184C110.836 302.32 110.668 301.36 110.668 300.304V299.224C110.668 298.816 110.86 298.612 111.244 298.612H114.16C114.568 298.612 114.772 298.816 114.772 299.224V300.448C114.772 301.336 115.036 302.056 115.564 302.608C116.116 303.136 116.848 303.4 117.76 303.4H122.224C123.136 303.4 123.856 303.136 124.384 302.608C124.912 302.056 125.176 301.336 125.176 300.448V299.26C125.176 298.708 125.02 298.216 124.708 297.784C124.396 297.352 123.976 297.052 123.448 296.884L114.844 294.328C113.524 293.944 112.468 293.224 111.676 292.168C110.884 291.112 110.488 289.9 110.488 288.532V287.308C110.488 286.252 110.656 285.292 110.992 284.428C111.328 283.564 111.808 282.82 112.432 282.196C113.056 281.572 113.8 281.092 114.664 280.756C115.528 280.42 116.488 280.252 117.544 280.252H122.08C123.136 280.252 124.096 280.42 124.96 280.756C125.848 281.092 126.592 281.572 127.192 282.196C127.816 282.82 128.296 283.564 128.632 284.428C128.968 285.292 129.136 286.252 129.136 287.308V288.352C129.136 288.736 128.944 288.928 128.56 288.928H125.644C125.236 288.928 125.032 288.736 125.032 288.352V287.2ZM131.709 281.548C131.709 281.332 131.769 281.152 131.889 281.008C132.033 280.864 132.225 280.792 132.465 280.792H149.781C150.021 280.792 150.201 280.864 150.321 281.008C150.465 281.152 150.537 281.332 150.537 281.548V283.996C150.537 284.5 150.285 284.752 149.781 284.752H143.193V306.388C143.193 306.604 143.121 306.784 142.977 306.928C142.857 307.072 142.677 307.144 142.437 307.144H139.845C139.605 307.144 139.413 307.072 139.269 306.928C139.149 306.784 139.089 306.604 139.089 306.388V284.752H132.465C131.961 284.752 131.709 284.5 131.709 283.996V281.548Z" fill="#FFAD66"/>
</svg>
