<svg width="750" height="1000" viewBox="0 0 750 1000" fill="none" xmlns="http://www.w3.org/2000/svg">
<path d="M56 88C56 74.7452 66.7452 64 80 64H182C195.255 64 206 74.7452 206 88V190C206 203.255 195.255 214 182 214H80C66.7452 214 56 203.255 56 190V88Z" fill="#00FFFF" fill-opacity="0.04"/>
<path d="M99 153.667H109.667V164.333H99V153.667Z" fill="#00FFFF"/>
<path d="M109.667 143H120.333V153.667H109.667V143Z" fill="#00FFFF"/>
<path d="M120.333 132.333H131V143L120.333 143V132.333Z" fill="#00FFFF"/>
<path d="M109.667 121.667H120.333V132.333H109.667V121.667Z" fill="#00FFFF"/>
<path d="M99 111H109.667V121.667H99V111Z" fill="#00FFFF"/>
<path d="M131 153.666H141.667V164.333H131V153.666Z" fill="#00FFFF"/>
<path d="M141.667 143H152.333V153.666L141.667 153.666L141.667 143Z" fill="#00FFFF"/>
<path d="M152.333 132.333H163V143L152.333 143L152.333 132.333Z" fill="#00FFFF"/>
<path d="M141.667 121.666H152.333L152.333 132.333L141.667 132.333V121.666Z" fill="#00FFFF"/>
<path d="M131 111H141.667L141.667 121.666L131 121.666V111Z" fill="#00FFFF"/>
<path d="M70.352 295.624H66.14V306.136C66.14 306.352 66.068 306.532 65.924 306.676C65.78 306.82 65.6 306.892 65.384 306.892H62.756C62.54 306.892 62.36 306.82 62.216 306.676C62.072 306.532 62 306.352 62 306.136V281.296C62 281.08 62.072 280.9 62.216 280.756C62.36 280.612 62.54 280.54 62.756 280.54H74.456C75.416 280.54 76.28 280.696 77.048 281.008C77.84 281.296 78.512 281.728 79.064 282.304C79.64 282.856 80.072 283.528 80.36 284.32C80.672 285.088 80.828 285.952 80.828 286.912V289.396C80.828 291.268 80.276 292.756 79.172 293.86C78.068 294.964 76.604 295.552 74.78 295.624L81.188 306.892H77.48C77.264 306.892 77.048 306.832 76.832 306.712C76.64 306.568 76.484 306.4 76.364 306.208L70.352 295.624ZM66.14 284.5V291.664H74.456C75.152 291.664 75.692 291.46 76.076 291.052C76.484 290.644 76.688 290.092 76.688 289.396V286.768C76.688 286.072 76.484 285.52 76.076 285.112C75.692 284.704 75.152 284.5 74.456 284.5H66.14Z" fill="#00FFFF"/>
<path d="M103.294 280.54C103.51 280.54 103.69 280.612 103.834 280.756C103.978 280.9 104.05 281.08 104.05 281.296V283.744C104.05 283.984 103.978 284.176 103.834 284.32C103.69 284.44 103.51 284.5 103.294 284.5H89.2897V291.7H102.574C102.79 291.7 102.97 291.772 103.114 291.916C103.258 292.036 103.33 292.216 103.33 292.456V294.832C103.33 295.072 103.258 295.264 103.114 295.408C102.97 295.528 102.79 295.588 102.574 295.588H89.2897V302.788H103.294C103.51 302.788 103.69 302.86 103.834 303.004C103.978 303.124 104.05 303.304 104.05 303.544V305.992C104.05 306.232 103.978 306.424 103.834 306.568C103.69 306.688 103.51 306.748 103.294 306.748H85.9057C85.6897 306.748 85.5097 306.688 85.3657 306.568C85.2217 306.424 85.1497 306.232 85.1497 305.992V281.296C85.1497 281.08 85.2217 280.9 85.3657 280.756C85.5097 280.612 85.6897 280.54 85.9057 280.54H103.294Z" fill="#00FFFF"/>
<path d="M122.413 286.948C122.413 286.036 122.137 285.316 121.585 284.788C121.057 284.236 120.349 283.96 119.461 283.96H114.961C114.073 283.96 113.353 284.236 112.801 284.788C112.273 285.316 112.009 286.036 112.009 286.948V288.136C112.009 288.688 112.165 289.18 112.477 289.612C112.789 290.044 113.209 290.344 113.737 290.512L122.341 293.068C123.661 293.452 124.717 294.172 125.509 295.228C126.301 296.284 126.697 297.496 126.697 298.864V300.052C126.697 301.108 126.529 302.068 126.193 302.932C125.857 303.796 125.377 304.54 124.753 305.164C124.129 305.788 123.385 306.268 122.521 306.604C121.657 306.94 120.697 307.108 119.641 307.108H115.105C114.049 307.108 113.077 306.94 112.189 306.604C111.325 306.268 110.581 305.788 109.957 305.164C109.357 304.54 108.889 303.796 108.553 302.932C108.217 302.068 108.049 301.108 108.049 300.052V298.972C108.049 298.564 108.241 298.36 108.625 298.36H111.541C111.949 298.36 112.153 298.564 112.153 298.972V300.196C112.153 301.084 112.417 301.804 112.945 302.356C113.497 302.884 114.229 303.148 115.141 303.148H119.605C120.517 303.148 121.237 302.884 121.765 302.356C122.293 301.804 122.557 301.084 122.557 300.196V299.008C122.557 298.456 122.401 297.964 122.089 297.532C121.777 297.1 121.357 296.8 120.829 296.632L112.225 294.076C110.905 293.692 109.849 292.972 109.057 291.916C108.265 290.86 107.869 289.648 107.869 288.28V287.056C107.869 286 108.037 285.04 108.373 284.176C108.709 283.312 109.189 282.568 109.813 281.944C110.437 281.32 111.181 280.84 112.045 280.504C112.909 280.168 113.869 280 114.925 280H119.461C120.517 280 121.477 280.168 122.341 280.504C123.229 280.84 123.973 281.32 124.573 281.944C125.197 282.568 125.677 283.312 126.013 284.176C126.349 285.04 126.517 286 126.517 287.056V288.1C126.517 288.484 126.325 288.676 125.941 288.676H123.025C122.617 288.676 122.413 288.484 122.413 288.1V286.948Z" fill="#00FFFF"/>
<path d="M149.523 280.54C149.739 280.54 149.919 280.612 150.063 280.756C150.207 280.9 150.279 281.08 150.279 281.296V283.744C150.279 283.984 150.207 284.176 150.063 284.32C149.919 284.44 149.739 284.5 149.523 284.5H135.519V291.7H148.803C149.019 291.7 149.199 291.772 149.343 291.916C149.487 292.036 149.559 292.216 149.559 292.456V294.832C149.559 295.072 149.487 295.264 149.343 295.408C149.199 295.528 149.019 295.588 148.803 295.588H135.519V302.788H149.523C149.739 302.788 149.919 302.86 150.063 303.004C150.207 303.124 150.279 303.304 150.279 303.544V305.992C150.279 306.232 150.207 306.424 150.063 306.568C149.919 306.688 149.739 306.748 149.523 306.748H132.135C131.919 306.748 131.739 306.688 131.595 306.568C131.451 306.424 131.379 306.232 131.379 305.992V281.296C131.379 281.08 131.451 280.9 131.595 280.756C131.739 280.612 131.919 280.54 132.135 280.54H149.523Z" fill="#00FFFF"/>
<path d="M172.722 306.748H169.122C168.93 306.748 168.762 306.7 168.618 306.604C168.498 306.484 168.414 306.328 168.366 306.136L167.25 302.032H159.294L158.178 306.136C158.13 306.328 158.034 306.484 157.89 306.604C157.77 306.7 157.614 306.748 157.422 306.748H153.786L161.094 281.116C161.19 280.732 161.43 280.54 161.814 280.54H164.73C165.114 280.54 165.366 280.732 165.486 281.116L172.722 306.748ZM166.17 298.108L163.29 287.524L160.374 298.108H166.17Z" fill="#00FFFF"/>
<path d="M184.589 295.624H180.377V306.136C180.377 306.352 180.305 306.532 180.161 306.676C180.017 306.82 179.837 306.892 179.621 306.892H176.993C176.777 306.892 176.597 306.82 176.453 306.676C176.309 306.532 176.237 306.352 176.237 306.136V281.296C176.237 281.08 176.309 280.9 176.453 280.756C176.597 280.612 176.777 280.54 176.993 280.54H188.693C189.653 280.54 190.517 280.696 191.285 281.008C192.077 281.296 192.749 281.728 193.301 282.304C193.877 282.856 194.309 283.528 194.597 284.32C194.909 285.088 195.065 285.952 195.065 286.912V289.396C195.065 291.268 194.513 292.756 193.409 293.86C192.305 294.964 190.841 295.552 189.017 295.624L195.425 306.892H191.717C191.501 306.892 191.285 306.832 191.069 306.712C190.877 306.568 190.721 306.4 190.601 306.208L184.589 295.624ZM180.377 284.5V291.664H188.693C189.389 291.664 189.929 291.46 190.313 291.052C190.721 290.644 190.925 290.092 190.925 289.396V286.768C190.925 286.072 190.721 285.52 190.313 285.112C189.929 284.704 189.389 284.5 188.693 284.5H180.377Z" fill="#00FFFF"/>
<path d="M217.61 300.052C217.61 301.108 217.442 302.068 217.106 302.932C216.77 303.796 216.29 304.54 215.666 305.164C215.042 305.788 214.298 306.268 213.434 306.604C212.57 306.94 211.61 307.108 210.554 307.108H205.838C204.782 307.108 203.822 306.94 202.958 306.604C202.094 306.268 201.35 305.788 200.726 305.164C200.102 304.54 199.622 303.796 199.286 302.932C198.95 302.068 198.782 301.108 198.782 300.052V287.056C198.782 286 198.95 285.04 199.286 284.176C199.622 283.312 200.102 282.568 200.726 281.944C201.35 281.32 202.094 280.84 202.958 280.504C203.822 280.168 204.782 280 205.838 280H210.554C211.61 280 212.57 280.168 213.434 280.504C214.298 280.84 215.042 281.32 215.666 281.944C216.29 282.568 216.77 283.312 217.106 284.176C217.442 285.04 217.61 286 217.61 287.056V288.172C217.61 288.508 217.442 288.676 217.106 288.676H214.01C213.674 288.676 213.506 288.508 213.506 288.172V286.948C213.506 286.036 213.23 285.316 212.678 284.788C212.15 284.236 211.43 283.96 210.518 283.96H205.874C204.986 283.96 204.266 284.236 203.714 284.788C203.186 285.316 202.922 286.036 202.922 286.948V300.196C202.922 301.084 203.186 301.804 203.714 302.356C204.266 302.884 204.986 303.148 205.874 303.148H210.518C211.43 303.148 212.15 302.884 212.678 302.356C213.23 301.804 213.506 301.084 213.506 300.196V298.9C213.506 298.54 213.674 298.36 214.01 298.36H217.106C217.442 298.36 217.61 298.54 217.61 298.9V300.052Z" fill="#00FFFF"/>
<path d="M222.536 281.08C222.536 280.624 222.764 280.396 223.22 280.396H225.992C226.448 280.396 226.676 280.624 226.676 281.08V291.664H237.224V281.08C237.224 280.624 237.452 280.396 237.908 280.396H240.68C241.136 280.396 241.364 280.624 241.364 281.08V306.208C241.364 306.664 241.136 306.892 240.68 306.892H237.908C237.452 306.892 237.224 306.664 237.224 306.208V295.624H226.676V306.208C226.676 306.664 226.448 306.892 225.992 306.892H223.22C222.764 306.892 222.536 306.664 222.536 306.208V281.08Z" fill="#00FFFF"/>
</svg>
