<svg width="750" height="1000" viewBox="0 0 750 1000" fill="none" xmlns="http://www.w3.org/2000/svg">
<rect x="56" y="64" width="150" height="150" rx="24" fill="#8CFF66" fill-opacity="0.05"/>
<path d="M81.0889 115.04H90.2327V124.184H81.0889V115.04Z" fill="#8CFF66"/>
<path d="M81.0889 124.184H90.2327L90.2335 133.328H81.0897L81.0889 124.184Z" fill="#8CFF66"/>
<path d="M90.2327 115.04L99.3776 115.041V124.184L90.2327 124.184V115.04Z" fill="#8CFF66"/>
<path d="M99.3776 115.041H108.522V124.184H99.3776V115.041Z" fill="#8CFF66"/>
<path d="M99.3776 115.041H108.522V124.184H99.3776V115.041Z" fill="#8CFF66"/>
<path d="M99.3776 115.041H108.522V124.184H99.3776V115.041Z" fill="#8CFF66"/>
<path d="M172.53 124.185H181.674V133.328H172.53V124.185Z" fill="#8CFF66"/>
<path d="M154.242 124.185H163.386V133.328H154.242V124.185Z" fill="#8CFF66"/>
<path d="M172.53 151.617H181.674V160.761H172.53V151.617Z" fill="#8CFF66"/>
<path d="M172.53 142.473H181.674V151.617H172.53V142.473Z" fill="#8CFF66"/>
<path d="M154.242 151.617H163.386V160.761H154.242V151.617Z" fill="#8CFF66"/>
<path d="M154.242 142.473H163.386V151.617H154.242V142.473Z" fill="#8CFF66"/>
<path d="M172.53 133.328H181.674V142.473H172.53V133.328Z" fill="#8CFF66"/>
<path d="M154.242 133.328H163.386V142.473H154.242V133.328Z" fill="#8CFF66"/>
<path d="M172.53 115.041H181.674V124.185H172.53V115.041Z" fill="#8CFF66"/>
<path d="M163.386 124.185H172.53V133.328H163.386V124.185Z" fill="#8CFF66"/>
<path d="M154.242 115.041H163.386V124.185H154.242V115.041Z" fill="#8CFF66"/>
<path d="M117.666 151.617H126.81V160.761H117.666V151.617Z" fill="#8CFF66"/>
<path d="M126.81 151.617H135.954V160.761H126.81V151.617Z" fill="#8CFF66"/>
<path d="M135.954 142.473H145.098V151.617L135.954 151.617L135.954 142.473Z" fill="#8CFF66"/>
<path d="M126.81 133.329H135.954L135.954 142.473L126.81 142.472V133.329Z" fill="#8CFF66"/>
<path d="M117.666 124.185H126.81L126.81 133.329L117.666 133.328V124.185Z" fill="#8CFF66"/>
<path d="M135.954 115.041H145.098V124.184H135.954V115.041Z" fill="#8CFF66"/>
<path d="M126.81 115.041H135.954V124.184L126.81 124.185L126.81 115.041Z" fill="#8CFF66"/>
<path d="M81.0897 151.617H90.2335V160.761H81.0897V151.617Z" fill="#8CFF66"/>
<path d="M99.3777 151.617H108.522V160.761H99.3777V151.617Z" fill="#8CFF66"/>
<path d="M99.3777 142.473H108.522V151.617H99.3777V142.473Z" fill="#8CFF66"/>
<path d="M90.2335 133.328L99.3776 133.329L99.3777 142.473L90.2337 142.472L90.2335 133.328Z" fill="#8CFF66"/>
<path d="M81.0897 142.473L90.2337 142.472L90.2335 151.617H81.0897V142.473Z" fill="#8CFF66"/>
<path d="M81.0897 133.328H90.2335L90.2337 142.472L81.0897 142.473V133.328Z" fill="#8CFF66"/>
<path d="M99.3776 133.329H108.522V142.473H99.3777L99.3776 133.329Z" fill="#8CFF66"/>
<path d="M99.3776 124.184H108.522V133.329H99.3776V124.184Z" fill="#8CFF66"/>
<path d="M80.936 306.748H77.336C77.144 306.748 76.976 306.7 76.832 306.604C76.712 306.484 76.628 306.328 76.58 306.136L75.464 302.032H67.508L66.392 306.136C66.344 306.328 66.248 306.484 66.104 306.604C65.984 306.7 65.828 306.748 65.636 306.748H62L69.308 281.116C69.404 280.732 69.644 280.54 70.028 280.54H72.944C73.328 280.54 73.58 280.732 73.7 281.116L80.936 306.748ZM74.384 298.108L71.504 287.524L68.588 298.108H74.384Z" fill="#8CFF66"/>
<path d="M97.9671 286.948C97.9671 286.036 97.6911 285.316 97.1391 284.788C96.6111 284.236 95.9031 283.96 95.0151 283.96H90.5151C89.6271 283.96 88.9071 284.236 88.3551 284.788C87.8271 285.316 87.5631 286.036 87.5631 286.948V288.136C87.5631 288.688 87.7191 289.18 88.0311 289.612C88.3431 290.044 88.7631 290.344 89.2911 290.512L97.8951 293.068C99.2151 293.452 100.271 294.172 101.063 295.228C101.855 296.284 102.251 297.496 102.251 298.864V300.052C102.251 301.108 102.083 302.068 101.747 302.932C101.411 303.796 100.931 304.54 100.307 305.164C99.6831 305.788 98.9391 306.268 98.0751 306.604C97.2111 306.94 96.2511 307.108 95.1951 307.108H90.6591C89.6031 307.108 88.6311 306.94 87.7431 306.604C86.8791 306.268 86.1351 305.788 85.5111 305.164C84.9111 304.54 84.4431 303.796 84.1071 302.932C83.7711 302.068 83.6031 301.108 83.6031 300.052V298.972C83.6031 298.564 83.7951 298.36 84.1791 298.36H87.0951C87.5031 298.36 87.7071 298.564 87.7071 298.972V300.196C87.7071 301.084 87.9711 301.804 88.4991 302.356C89.0511 302.884 89.7831 303.148 90.6951 303.148H95.1591C96.0711 303.148 96.7911 302.884 97.3191 302.356C97.8471 301.804 98.1111 301.084 98.1111 300.196V299.008C98.1111 298.456 97.9551 297.964 97.6431 297.532C97.3311 297.1 96.9111 296.8 96.3831 296.632L87.7791 294.076C86.4591 293.692 85.4031 292.972 84.6111 291.916C83.8191 290.86 83.4231 289.648 83.4231 288.28V287.056C83.4231 286 83.5911 285.04 83.9271 284.176C84.2631 283.312 84.7431 282.568 85.3671 281.944C85.9911 281.32 86.7351 280.84 87.5991 280.504C88.4631 280.168 89.4231 280 90.4791 280H95.0151C96.0711 280 97.0311 280.168 97.8951 280.504C98.7831 280.84 99.5271 281.32 100.127 281.944C100.751 282.568 101.231 283.312 101.567 284.176C101.903 285.04 102.071 286 102.071 287.056V288.1C102.071 288.484 101.879 288.676 101.495 288.676H98.5791C98.1711 288.676 97.9671 288.484 97.9671 288.1V286.948Z" fill="#8CFF66"/>
<path d="M121.257 286.948C121.257 286.036 120.981 285.316 120.429 284.788C119.901 284.236 119.193 283.96 118.305 283.96H113.805C112.917 283.96 112.197 284.236 111.645 284.788C111.117 285.316 110.853 286.036 110.853 286.948V288.136C110.853 288.688 111.009 289.18 111.321 289.612C111.633 290.044 112.053 290.344 112.581 290.512L121.185 293.068C122.505 293.452 123.561 294.172 124.353 295.228C125.145 296.284 125.541 297.496 125.541 298.864V300.052C125.541 301.108 125.373 302.068 125.037 302.932C124.701 303.796 124.221 304.54 123.597 305.164C122.973 305.788 122.229 306.268 121.365 306.604C120.501 306.94 119.541 307.108 118.485 307.108H113.949C112.893 307.108 111.921 306.94 111.033 306.604C110.169 306.268 109.425 305.788 108.801 305.164C108.201 304.54 107.733 303.796 107.397 302.932C107.061 302.068 106.893 301.108 106.893 300.052V298.972C106.893 298.564 107.085 298.36 107.469 298.36H110.385C110.793 298.36 110.997 298.564 110.997 298.972V300.196C110.997 301.084 111.261 301.804 111.789 302.356C112.341 302.884 113.073 303.148 113.985 303.148H118.449C119.361 303.148 120.081 302.884 120.609 302.356C121.137 301.804 121.401 301.084 121.401 300.196V299.008C121.401 298.456 121.245 297.964 120.933 297.532C120.621 297.1 120.201 296.8 119.673 296.632L111.069 294.076C109.749 293.692 108.693 292.972 107.901 291.916C107.109 290.86 106.713 289.648 106.713 288.28V287.056C106.713 286 106.881 285.04 107.217 284.176C107.553 283.312 108.033 282.568 108.657 281.944C109.281 281.32 110.025 280.84 110.889 280.504C111.753 280.168 112.713 280 113.769 280H118.305C119.361 280 120.321 280.168 121.185 280.504C122.073 280.84 122.817 281.32 123.417 281.944C124.041 282.568 124.521 283.312 124.857 284.176C125.193 285.04 125.361 286 125.361 287.056V288.1C125.361 288.484 125.169 288.676 124.785 288.676H121.869C121.461 288.676 121.257 288.484 121.257 288.1V286.948Z" fill="#8CFF66"/>
<path d="M148.367 280.54C148.583 280.54 148.763 280.612 148.907 280.756C149.051 280.9 149.123 281.08 149.123 281.296V283.744C149.123 283.984 149.051 284.176 148.907 284.32C148.763 284.44 148.583 284.5 148.367 284.5H134.363V291.7H147.647C147.863 291.7 148.043 291.772 148.187 291.916C148.331 292.036 148.403 292.216 148.403 292.456V294.832C148.403 295.072 148.331 295.264 148.187 295.408C148.043 295.528 147.863 295.588 147.647 295.588H134.363V302.788H148.367C148.583 302.788 148.763 302.86 148.907 303.004C149.051 303.124 149.123 303.304 149.123 303.544V305.992C149.123 306.232 149.051 306.424 148.907 306.568C148.763 306.688 148.583 306.748 148.367 306.748H130.979C130.763 306.748 130.583 306.688 130.439 306.568C130.295 306.424 130.223 306.232 130.223 305.992V281.296C130.223 281.08 130.295 280.9 130.439 280.756C130.583 280.612 130.763 280.54 130.979 280.54H148.367Z" fill="#8CFF66"/>
<path d="M158.462 288.676V306.136C158.462 306.352 158.39 306.532 158.246 306.676C158.102 306.82 157.922 306.892 157.706 306.892H155.078C154.862 306.892 154.682 306.82 154.538 306.676C154.394 306.532 154.322 306.352 154.322 306.136V281.152C154.322 280.936 154.394 280.756 154.538 280.612C154.682 280.468 154.862 280.396 155.078 280.396H157.562C157.946 280.396 158.222 280.564 158.39 280.9L163.754 290.584L169.082 280.9C169.25 280.564 169.526 280.396 169.91 280.396H172.394C172.61 280.396 172.79 280.468 172.934 280.612C173.078 280.756 173.15 280.936 173.15 281.152V306.136C173.15 306.352 173.078 306.532 172.934 306.676C172.79 306.82 172.61 306.892 172.394 306.892H169.802C169.562 306.892 169.37 306.82 169.226 306.676C169.082 306.532 169.01 306.352 169.01 306.136V288.712L165.05 295.732C164.93 295.996 164.714 296.128 164.402 296.128H163.07C162.806 296.128 162.59 295.996 162.422 295.732L158.462 288.676Z" fill="#8CFF66"/>
<path d="M191.311 280.54C193.039 280.54 194.419 281.068 195.451 282.124C196.483 283.156 196.999 284.536 196.999 286.264V288.712C196.999 289.84 196.771 290.824 196.315 291.664C195.883 292.48 195.271 293.128 194.479 293.608C195.319 294.088 195.979 294.748 196.459 295.588C196.939 296.428 197.179 297.424 197.179 298.576V301.06C197.179 302.788 196.663 304.168 195.631 305.2C194.599 306.232 193.219 306.748 191.491 306.748H179.107C178.891 306.748 178.711 306.688 178.567 306.568C178.423 306.424 178.351 306.232 178.351 305.992V281.296C178.351 281.08 178.423 280.9 178.567 280.756C178.711 280.612 178.891 280.54 179.107 280.54H191.311ZM190.663 291.664C191.335 291.664 191.875 291.472 192.283 291.088C192.691 290.68 192.895 290.128 192.895 289.432V286.768C192.895 286.072 192.691 285.52 192.283 285.112C191.875 284.704 191.335 284.5 190.663 284.5H182.491V291.664H190.663ZM190.807 302.788C191.503 302.788 192.043 302.584 192.427 302.176C192.835 301.768 193.039 301.228 193.039 300.556V297.892C193.039 297.196 192.835 296.656 192.427 296.272C192.043 295.864 191.503 295.66 190.807 295.66H182.491V302.788H190.807Z" fill="#8CFF66"/>
<path d="M201.922 281.152C201.922 280.936 201.994 280.756 202.138 280.612C202.282 280.468 202.462 280.396 202.678 280.396H205.306C205.522 280.396 205.702 280.468 205.846 280.612C205.99 280.756 206.062 280.936 206.062 281.152V302.788H220.066C220.282 302.788 220.462 302.86 220.606 303.004C220.75 303.124 220.822 303.304 220.822 303.544V305.992C220.822 306.232 220.75 306.424 220.606 306.568C220.462 306.688 220.282 306.748 220.066 306.748H202.678C202.462 306.748 202.282 306.688 202.138 306.568C201.994 306.424 201.922 306.232 201.922 305.992V281.152Z" fill="#8CFF66"/>
<path d="M238.661 280.54L231.245 295.732V306.136C231.245 306.352 231.173 306.532 231.029 306.676C230.885 306.82 230.705 306.892 230.489 306.892H227.861C227.645 306.892 227.465 306.82 227.321 306.676C227.177 306.532 227.105 306.352 227.105 306.136V295.732L219.689 280.54H223.469C223.901 280.54 224.201 280.744 224.369 281.152L229.193 290.944L234.017 281.152C234.137 280.744 234.425 280.54 234.881 280.54H238.661Z" fill="#8CFF66"/>
</svg>
