<svg width="750" height="1000" viewBox="0 0 750 1000" fill="none" xmlns="http://www.w3.org/2000/svg">
<path opacity="0.2" d="M85.0664 911.254C85.496 909.145 84.8614 906.905 83.3106 905.354C81.7598 903.802 79.5176 903.168 77.4102 903.598C76.2246 901.804 74.1914 900.669 71.998 900.669C69.8046 900.669 67.7714 901.804 66.5858 903.598C64.4804 903.167 62.2382 903.802 60.6854 905.354C59.1346 906.905 58.4998 909.145 58.9296 911.253C57.1346 912.439 56 914.473 56 916.667C56 918.861 57.1348 920.893 58.9296 922.08C58.5 924.188 59.1346 926.428 60.6854 927.979C62.2382 929.531 64.4804 930.165 66.5858 929.736C67.7714 931.53 69.8046 932.665 71.998 932.665C74.1914 932.665 76.2246 931.529 77.4102 929.735C79.5254 930.164 81.7598 929.53 83.3106 927.979C84.8634 926.428 85.4982 924.187 85.0664 922.08C86.8614 920.894 87.996 918.861 87.996 916.667C87.996 914.473 86.8612 912.44 85.0664 911.254Z" fill="#00FFFF"/>
<path d="M69.996 923.667C69.5722 923.667 69.166 923.488 68.8808 923.171L64.3808 918.171C63.8262 917.555 63.8767 916.607 64.4921 916.052C65.1073 915.498 66.0527 915.546 66.6113 916.163L69.9082 919.827L77.3085 910.25C77.8163 909.595 78.7577 909.473 79.4139 909.981C80.0681 910.486 80.1893 911.429 79.6835 912.084L71.1835 923.084C70.9101 923.437 70.496 923.65 70.0528 923.666C70.0332 923.667 70.0154 923.667 69.996 923.667Z" fill="#00FFFF"/>
<path d="M124.768 922.304C124.768 923.072 124.672 923.804 124.48 924.5C124.288 925.172 124.024 925.784 123.688 926.336L124.912 929H121.168C121 929 120.82 928.952 120.628 928.856C119.692 929.192 118.72 929.36 117.712 929.36H112.996C111.94 929.36 110.98 929.192 110.116 928.856C109.252 928.52 108.508 928.04 107.884 927.416C107.26 926.792 106.78 926.048 106.444 925.184C106.108 924.32 105.94 923.36 105.94 922.304V909.308C105.94 908.252 106.108 907.292 106.444 906.428C106.78 905.564 107.26 904.82 107.884 904.196C108.508 903.572 109.252 903.092 110.116 902.756C110.98 902.42 111.94 902.252 112.996 902.252H117.712C118.768 902.252 119.728 902.42 120.592 902.756C121.456 903.092 122.2 903.572 122.824 904.196C123.448 904.82 123.928 905.564 124.264 906.428C124.6 907.292 124.768 908.252 124.768 909.308V922.304ZM120.664 919.712V909.2C120.664 908.288 120.388 907.568 119.836 907.04C119.308 906.488 118.588 906.212 117.676 906.212H113.032C112.144 906.212 111.424 906.488 110.872 907.04C110.344 907.568 110.08 908.288 110.08 909.2V922.448C110.08 923.336 110.344 924.056 110.872 924.608C111.424 925.136 112.144 925.4 113.032 925.4H117.676C117.868 925.4 118.048 925.388 118.216 925.364C118.408 925.34 118.588 925.304 118.756 925.256L114.076 915.032H117.784C118.048 915.032 118.264 915.104 118.432 915.248C118.624 915.392 118.768 915.572 118.864 915.788L120.664 919.712ZM132.211 902.648C132.427 902.648 132.607 902.72 132.751 902.864C132.895 903.008 132.967 903.188 132.967 903.404V922.448C132.967 923.36 133.231 924.092 133.759 924.644C134.311 925.172 135.031 925.436 135.919 925.436H140.563C141.475 925.436 142.195 925.172 142.723 924.644C143.275 924.092 143.551 923.36 143.551 922.448V903.404C143.551 903.188 143.611 903.008 143.731 902.864C143.875 902.72 144.067 902.648 144.307 902.648H146.899C147.139 902.648 147.319 902.72 147.439 902.864C147.583 903.008 147.655 903.188 147.655 903.404V922.34C147.655 923.396 147.487 924.356 147.151 925.22C146.815 926.084 146.335 926.828 145.711 927.452C145.087 928.076 144.343 928.556 143.479 928.892C142.615 929.228 141.655 929.396 140.599 929.396H135.883C134.827 929.396 133.867 929.228 133.003 928.892C132.139 928.556 131.395 928.076 130.771 927.452C130.147 926.828 129.667 926.084 129.331 925.22C128.995 924.356 128.827 923.396 128.827 922.34V903.404C128.827 903.188 128.899 903.008 129.043 902.864C129.187 902.72 129.379 902.648 129.619 902.648H132.211ZM157.765 903.476C157.861 903.284 158.005 903.128 158.197 903.008C158.389 902.864 158.605 902.792 158.845 902.792H163.129C163.633 902.792 164.005 903.02 164.245 903.476L170.113 915.104C170.209 915.296 170.281 915.524 170.329 915.788C170.377 916.052 170.401 916.292 170.401 916.508V928.244C170.401 928.748 170.149 929 169.645 929H167.053C166.549 929 166.297 928.748 166.297 928.244V924.284H155.713V928.244C155.713 928.484 155.641 928.676 155.497 928.82C155.353 928.94 155.173 929 154.957 929H152.365C151.837 929 151.573 928.748 151.573 928.244V916.508C151.573 916.292 151.597 916.052 151.645 915.788C151.717 915.524 151.801 915.296 151.897 915.104L157.765 903.476ZM166.297 920.36V916.04L161.473 906.752H160.537L155.713 916.04V920.36H166.297ZM174.607 903.404C174.607 903.188 174.679 903.008 174.823 902.864C174.967 902.72 175.147 902.648 175.363 902.648H177.991C178.207 902.648 178.387 902.72 178.531 902.864C178.675 903.008 178.747 903.188 178.747 903.404V925.04H192.751C192.967 925.04 193.147 925.112 193.291 925.256C193.435 925.376 193.507 925.556 193.507 925.796V928.244C193.507 928.484 193.435 928.676 193.291 928.82C193.147 928.94 192.967 929 192.751 929H175.363C175.147 929 174.967 928.94 174.823 928.82C174.679 928.676 174.607 928.484 174.607 928.244V903.404ZM201.847 925.04V906.752H195.187C194.683 906.752 194.431 906.5 194.431 905.996V903.548C194.431 903.332 194.491 903.152 194.611 903.008C194.755 902.864 194.947 902.792 195.187 902.792H212.539C212.779 902.792 212.971 902.864 213.115 903.008C213.259 903.152 213.331 903.332 213.331 903.548V905.996C213.331 906.5 213.067 906.752 212.539 906.752H205.951V925.04H212.539C213.067 925.04 213.331 925.292 213.331 925.796V928.244C213.331 928.748 213.067 929 212.539 929H195.187C194.683 929 194.431 928.748 194.431 928.244V925.796C194.431 925.292 194.683 925.04 195.187 925.04H201.847ZM234.235 902.792C234.451 902.792 234.631 902.864 234.775 903.008C234.919 903.152 234.991 903.332 234.991 903.548V905.996C234.991 906.236 234.919 906.428 234.775 906.572C234.631 906.692 234.451 906.752 234.235 906.752H220.231V913.952H233.515C233.731 913.952 233.911 914.024 234.055 914.168C234.199 914.288 234.271 914.468 234.271 914.708V917.084C234.271 917.324 234.199 917.516 234.055 917.66C233.911 917.78 233.731 917.84 233.515 917.84H220.231V928.388C220.231 928.604 220.159 928.784 220.015 928.928C219.871 929.072 219.691 929.144 219.475 929.144H216.847C216.631 929.144 216.451 929.072 216.307 928.928C216.163 928.784 216.091 928.604 216.091 928.388V903.548C216.091 903.332 216.163 903.152 216.307 903.008C216.451 902.864 216.631 902.792 216.847 902.792H234.235ZM243.127 925.04V906.752H236.467C235.963 906.752 235.711 906.5 235.711 905.996V903.548C235.711 903.332 235.771 903.152 235.891 903.008C236.035 902.864 236.227 902.792 236.467 902.792H253.819C254.059 902.792 254.251 902.864 254.395 903.008C254.539 903.152 254.611 903.332 254.611 903.548V905.996C254.611 906.5 254.347 906.752 253.819 906.752H247.231V925.04H253.819C254.347 925.04 254.611 925.292 254.611 925.796V928.244C254.611 928.748 254.347 929 253.819 929H236.467C235.963 929 235.711 928.748 235.711 928.244V925.796C235.711 925.292 235.963 925.04 236.467 925.04H243.127ZM275.298 902.792C275.514 902.792 275.694 902.864 275.838 903.008C275.982 903.152 276.054 903.332 276.054 903.548V905.996C276.054 906.236 275.982 906.428 275.838 906.572C275.694 906.692 275.514 906.752 275.298 906.752H261.294V913.952H274.578C274.794 913.952 274.974 914.024 275.118 914.168C275.262 914.288 275.334 914.468 275.334 914.708V917.084C275.334 917.324 275.262 917.516 275.118 917.66C274.974 917.78 274.794 917.84 274.578 917.84H261.294V925.04H275.298C275.514 925.04 275.694 925.112 275.838 925.256C275.982 925.376 276.054 925.556 276.054 925.796V928.244C276.054 928.484 275.982 928.676 275.838 928.82C275.694 928.94 275.514 929 275.298 929H257.91C257.694 929 257.514 928.94 257.37 928.82C257.226 928.676 257.154 928.484 257.154 928.244V903.548C257.154 903.332 257.226 903.152 257.37 903.008C257.514 902.864 257.694 902.792 257.91 902.792H275.298ZM292.305 902.792C293.361 902.792 294.321 902.96 295.185 903.296C296.049 903.632 296.793 904.112 297.417 904.736C298.041 905.36 298.521 906.104 298.857 906.968C299.193 907.832 299.361 908.792 299.361 909.848V921.944C299.361 923 299.193 923.96 298.857 924.824C298.521 925.688 298.041 926.432 297.417 927.056C296.793 927.68 296.049 928.16 295.185 928.496C294.321 928.832 293.361 929 292.305 929H281.289C281.073 929 280.893 928.94 280.749 928.82C280.605 928.676 280.533 928.484 280.533 928.244V903.548C280.533 903.332 280.605 903.152 280.749 903.008C280.893 902.864 281.073 902.792 281.289 902.792H292.305ZM292.269 925.04C293.181 925.04 293.901 924.776 294.429 924.248C294.957 923.696 295.221 922.976 295.221 922.088V909.74C295.221 908.828 294.957 908.108 294.429 907.58C293.901 907.028 293.181 906.752 292.269 906.752H284.673V925.04H292.269Z" fill="#00FFFF"/>
</svg>
