<svg width="32" height="32" viewBox="0 0 32 32" fill="none" xmlns="http://www.w3.org/2000/svg">
<rect width="32" height="32" fill="#0B0E14"/>
<path d="M5.3335 20.889H8.88905V24.4445H5.3335V20.889Z" fill="#00FFFF"/>
<path d="M8.88905 17.3334H12.4446V20.889H8.88905V17.3334Z" fill="#00FFFF"/>
<path d="M12.4446 13.7779H16.0002V17.3334L12.4446 17.3334V13.7779Z" fill="#00FFFF"/>
<path d="M8.88905 10.2223H12.4446V13.7779H8.88905V10.2223Z" fill="#00FFFF"/>
<path d="M5.3335 6.66675H8.88905V10.2223H5.3335V6.66675Z" fill="#00FFFF"/>
<path d="M16 20.889H19.5556V24.4445H16V20.889Z" fill="#00FFFF"/>
<path d="M19.5556 17.3334H23.1111V20.889L19.5556 20.889L19.5556 17.3334Z" fill="#00FFFF"/>
<path d="M23.1111 13.7779H26.6667V17.3334L23.1111 17.3334L23.1111 13.7779Z" fill="#00FFFF"/>
<path d="M19.5556 10.2223H23.1111L23.1111 13.7779L19.5556 13.7779V10.2223Z" fill="#00FFFF"/>
<path d="M16 6.66675H19.5556L19.5556 10.2223L16 10.2223V6.66675Z" fill="#00FFFF"/>
</svg>
