<svg width="150" height="150" viewBox="0 0 150 150" fill="none" xmlns="http://www.w3.org/2000/svg">
<rect width="150" height="150" rx="24" fill="#69A2F1" fill-opacity="0.05"/>
<path d="M97.8577 88.7139H88.7148V97.8567H97.8577V88.7139Z" fill="#69A2F1"/>
<path d="M61.2874 88.7139H52.1445V97.8567H61.2874V88.7139Z" fill="#69A2F1"/>
<path d="M61.2874 79.5708H52.1445V88.7137H61.2874V79.5708Z" fill="#69A2F1"/>
<path d="M61.2874 70.4282H52.1445V79.5711H61.2874V70.4282Z" fill="#69A2F1"/>
<path d="M52.1429 52.1426H43V61.2854H52.1429V52.1426Z" fill="#69A2F1"/>
<path d="M70.428 52.1426H61.2852V61.2854H70.428V52.1426Z" fill="#69A2F1"/>
<path d="M61.2874 52.1426H52.1445V61.2854H61.2874V52.1426Z" fill="#69A2F1"/>
<path d="M88.7132 88.7139H79.5703V97.8567H88.7132V88.7139Z" fill="#69A2F1"/>
<path d="M106.998 79.5708H97.8555V88.7137H106.998V79.5708Z" fill="#69A2F1"/>
<path d="M97.8577 70.4282H88.7148V79.5711H97.8577V70.4282Z" fill="#69A2F1"/>
<path d="M88.7132 61.2852H79.5703V70.428H88.7132V61.2852Z" fill="#69A2F1"/>
<path d="M61.2874 61.2852H52.1445V70.428H61.2874V61.2852Z" fill="#69A2F1"/>
<path d="M97.8577 52.1426H88.7148V61.2854H97.8577V52.1426Z" fill="#69A2F1"/>
<path d="M106.998 52.1426H97.8555V61.2854H106.998V52.1426Z" fill="#69A2F1"/>
</svg>
