<svg width="150" height="150" viewBox="0 0 150 150" fill="none" xmlns="http://www.w3.org/2000/svg">
<rect width="150" height="150" rx="24" fill="#00FFFF" fill-opacity="0.05"/>
<path d="M43 89.6667H53.6667V100.333H43V89.6667Z" fill="#00FFFF"/>
<path d="M53.6667 79H64.3333V89.6667H53.6667V79Z" fill="#00FFFF"/>
<path d="M64.3333 68.3333H75V79L64.3333 79V68.3333Z" fill="#00FFFF"/>
<path d="M53.6667 57.6667H64.3333V68.3333H53.6667V57.6667Z" fill="#00FFFF"/>
<path d="M43 47H53.6667V57.6667H43V47Z" fill="#00FFFF"/>
<path d="M75 89.6662H85.6667V100.333H75V89.6662Z" fill="#00FFFF"/>
<path d="M85.6667 78.9995H96.3334V89.6662L85.6667 89.6662L85.6667 78.9995Z" fill="#00FFFF"/>
<path d="M96.3333 68.3328H107V78.9995L96.3334 78.9995L96.3333 68.3328Z" fill="#00FFFF"/>
<path d="M85.6667 57.6662H96.3334L96.3333 68.3328L85.6667 68.3328V57.6662Z" fill="#00FFFF"/>
<path d="M75 46.9995H85.6667L85.6667 57.6662L75 57.6662V46.9995Z" fill="#00FFFF"/>
</svg>
