<svg width="150" height="150" viewBox="0 0 150 150" fill="none" xmlns="http://www.w3.org/2000/svg">
<rect width="150" height="150" rx="24" fill="#8CFF66" fill-opacity="0.05"/>
<path d="M25.0889 51.0403H34.2327V60.1842H25.0889V51.0403Z" fill="#8CFF66"/>
<path d="M25.0889 60.1842H34.2327L34.2335 69.3285H25.0897L25.0889 60.1842Z" fill="#8CFF66"/>
<path d="M34.2327 51.0403L43.3776 51.0406V60.1844L34.2327 60.1842V51.0403Z" fill="#8CFF66"/>
<path d="M43.3776 51.0406H52.5216V60.1844H43.3776V51.0406Z" fill="#8CFF66"/>
<path d="M43.3776 51.0406H52.5216V60.1844H43.3776V51.0406Z" fill="#8CFF66"/>
<path d="M43.3776 51.0406H52.5216V60.1844H43.3776V51.0406Z" fill="#8CFF66"/>
<path d="M116.53 60.1846H125.674V69.3285H116.53V60.1846Z" fill="#8CFF66"/>
<path d="M98.2419 60.1846H107.386V69.3285H98.2419V60.1846Z" fill="#8CFF66"/>
<path d="M116.53 87.6167H125.674V96.7606H116.53V87.6167Z" fill="#8CFF66"/>
<path d="M116.53 78.4727H125.674V87.6167H116.53V78.4727Z" fill="#8CFF66"/>
<path d="M98.2419 87.6167H107.386V96.7606H98.2419V87.6167Z" fill="#8CFF66"/>
<path d="M98.2419 78.4727H107.386V87.6167H98.2419V78.4727Z" fill="#8CFF66"/>
<path d="M116.53 69.3285H125.674V78.4727H116.53V69.3285Z" fill="#8CFF66"/>
<path d="M98.2419 69.3285H107.386V78.4727H98.2419V69.3285Z" fill="#8CFF66"/>
<path d="M116.53 51.0406H125.674V60.1846H116.53V51.0406Z" fill="#8CFF66"/>
<path d="M107.386 60.1846H116.53V69.3285H107.386V60.1846Z" fill="#8CFF66"/>
<path d="M98.2419 51.0406H107.386V60.1846H98.2419V51.0406Z" fill="#8CFF66"/>
<path d="M61.6658 87.6167H70.8097V96.7606H61.6658V87.6167Z" fill="#8CFF66"/>
<path d="M70.8097 87.6167H79.9537V96.7606H70.8097V87.6167Z" fill="#8CFF66"/>
<path d="M79.9538 78.4727H89.0977V87.6165L79.9537 87.6167L79.9538 78.4727Z" fill="#8CFF66"/>
<path d="M70.8098 69.3286H79.9537L79.9538 78.4727L70.8098 78.4725V69.3286Z" fill="#8CFF66"/>
<path d="M61.6658 60.1846H70.8097L70.8098 69.3286L61.6658 69.3285V60.1846Z" fill="#8CFF66"/>
<path d="M79.9538 51.0406H89.0977V60.1844H79.9538V51.0406Z" fill="#8CFF66"/>
<path d="M70.8098 51.0406H79.9538V60.1844L70.8097 60.1846L70.8098 51.0406Z" fill="#8CFF66"/>
<path d="M25.0897 87.6167H34.2335V96.7606H25.0897V87.6167Z" fill="#8CFF66"/>
<path d="M43.3777 87.6167H52.5216V96.7606H43.3777V87.6167Z" fill="#8CFF66"/>
<path d="M43.3777 78.4727H52.5216V87.6167H43.3777V78.4727Z" fill="#8CFF66"/>
<path d="M34.2335 69.3285L43.3776 69.3286L43.3777 78.4727L34.2337 78.4725L34.2335 69.3285Z" fill="#8CFF66"/>
<path d="M25.0897 78.4727L34.2337 78.4725L34.2335 87.6167H25.0897V78.4727Z" fill="#8CFF66"/>
<path d="M25.0897 69.3285H34.2335L34.2337 78.4725L25.0897 78.4727V69.3285Z" fill="#8CFF66"/>
<path d="M43.3776 69.3286H52.5216V78.4727H43.3777L43.3776 69.3286Z" fill="#8CFF66"/>
<path d="M43.3776 60.1844H52.5216V69.3286H43.3776V60.1844Z" fill="#8CFF66"/>
</svg>
