<svg width="150" height="150" viewBox="0 0 150 150" fill="none" xmlns="http://www.w3.org/2000/svg">
<rect width="150" height="150" rx="24" fill="#FFAD66" fill-opacity="0.05"/>
<path d="M97.8577 88.7148H88.7148V97.8577H97.8577V88.7148Z" fill="#FFAD66"/>
<path d="M52.1429 88.7148H43V97.8577H52.1429V88.7148Z" fill="#FFAD66"/>
<path d="M52.1429 79.5703H43V88.7132H52.1429V79.5703Z" fill="#FFAD66"/>
<path d="M52.1429 70.4277H43V79.5706H52.1429V70.4277Z" fill="#FFAD66"/>
<path d="M52.1429 52.1426H43V61.2854H52.1429V52.1426Z" fill="#FFAD66"/>
<path d="M70.428 52.1426H61.2852V61.2854H70.428V52.1426Z" fill="#FFAD66"/>
<path d="M61.2874 52.1426H52.1445V61.2854H61.2874V52.1426Z" fill="#FFAD66"/>
<path d="M88.7132 88.7148H79.5703V97.8577H88.7132V88.7148Z" fill="#FFAD66"/>
<path d="M106.998 79.5703H97.8555V88.7132H106.998V79.5703Z" fill="#FFAD66"/>
<path d="M97.8577 70.4277H88.7148V79.5706H97.8577V70.4277Z" fill="#FFAD66"/>
<path d="M88.7132 61.2852H79.5703V70.428H88.7132V61.2852Z" fill="#FFAD66"/>
<path d="M52.1429 61.2852H43V70.428H52.1429V61.2852Z" fill="#FFAD66"/>
<path d="M97.8577 52.1426H88.7148V61.2854H97.8577V52.1426Z" fill="#FFAD66"/>
<path d="M106.998 52.1426H97.8555V61.2854H106.998V52.1426Z" fill="#FFAD66"/>
<path d="M70.428 88.7148H61.2852V97.8577H70.428V88.7148Z" fill="#FFAD66"/>
<path d="M70.428 79.5703H61.2852V88.7132H70.428V79.5703Z" fill="#FFAD66"/>
<path d="M61.2874 70.4277H52.1445V79.5706H61.2874V70.4277Z" fill="#FFAD66"/>
<path d="M70.428 61.2852H61.2852V70.428H70.428V61.2852Z" fill="#FFAD66"/>
</svg>
