<svg width="150" height="150" viewBox="0 0 150 150" fill="none" xmlns="http://www.w3.org/2000/svg">
<rect width="150" height="150" rx="24" fill="#DDEAE0" fill-opacity="0.05"/>
<path d="M91.1 96.3333H80.6997V107H91.1V96.3333Z" fill="#DDEAE0"/>
<path d="M70.3004 96.3333H59.9001V107H70.3004V96.3333Z" fill="#DDEAE0"/>
<path d="M80.7023 85.6663H70.302V96.333H80.7023V85.6663Z" fill="#DDEAE0"/>
<path d="M80.7023 75.0002H70.302V85.667H80.7023V75.0002Z" fill="#DDEAE0"/>
<path d="M80.7023 64.3333H70.302V75H80.7023V64.3333Z" fill="#DDEAE0"/>
<path d="M70.3004 53.667H59.9001V64.3337H70.3004V53.667Z" fill="#DDEAE0"/>
<path d="M91.1 53.667H80.6997V64.3337H91.1V53.667Z" fill="#DDEAE0"/>
<path d="M80.7023 43H70.302V53.6667H80.7023V43Z" fill="#DDEAE0"/>
<path d="M59.9005 85.6667H49.5002V96.3335H59.9005V85.6667Z" fill="#DDEAE0"/>
<path d="M101.5 85.6663H91.0996V96.333H101.5V85.6663Z" fill="#DDEAE0"/>
</svg>
