<svg width="360" height="148" viewBox="0 0 360 148" fill="none" xmlns="http://www.w3.org/2000/svg">
<mask id="mask0_211_8274" style="mask-type:alpha" maskUnits="userSpaceOnUse" x="0" y="0" width="360" height="148">
<rect width="360" height="147.964" fill="url(#paint0_linear_211_8274)"/>
</mask>
<g mask="url(#mask0_211_8274)">
<path d="M0 17.3674C0 7.78564 7.76759 0.0180664 17.3494 0.0180664H342.651C352.232 0.0180664 360 7.78566 360 17.3675V163.217H0V17.3674Z" fill="#11141A"/>
<path d="M0.542169 17.3674C0.542169 8.08507 8.06702 0.560235 17.3494 0.560235H342.651C351.933 0.560235 359.458 8.08509 359.458 17.3675V162.675H0.542169V17.3674Z" stroke="#ADB9D2" stroke-opacity="0.1" stroke-width="1.08434"/>
<path d="M55.6454 37.3674V25.5698H57.5885V37.3674H55.6454ZM59.8786 33.1862H57.0507V31.6248H59.7745C60.5842 31.6248 61.2088 31.4224 61.6483 31.0176C62.0878 30.6127 62.3076 30.0691 62.3076 29.3867C62.3076 28.6927 62.0878 28.1433 61.6483 27.7385C61.2088 27.3337 60.6015 27.1313 59.8266 27.1313H57.0507V25.5698H59.8439C60.7692 25.5698 61.5615 25.726 62.2208 26.0383C62.8917 26.339 63.4064 26.7727 63.7649 27.3395C64.1235 27.8947 64.3027 28.5713 64.3027 29.3694C64.3027 30.5838 63.8979 31.5265 63.0883 32.1973C62.2902 32.8566 61.2203 33.1862 59.8786 33.1862ZM65.6621 37.3674V24.8759H67.5185V37.3674H65.6621ZM67.5185 31.9371H66.7898C66.8476 31.0349 67.0269 30.2831 67.3276 29.6816C67.6399 29.0802 68.0505 28.6291 68.5594 28.3284C69.0684 28.0277 69.6525 27.8773 70.3117 27.8773C70.9594 27.8773 71.5146 28.0045 71.9773 28.259C72.4399 28.5019 72.7985 28.872 73.0529 29.3694C73.3074 29.8551 73.4346 30.4624 73.4346 31.191V37.3674H71.5956V31.5727C71.5956 31.1216 71.5262 30.74 71.3874 30.4277C71.2486 30.1038 71.0462 29.8551 70.7802 29.6816C70.5141 29.5082 70.1672 29.4214 69.7392 29.4214C69.3922 29.4214 69.0799 29.4966 68.8023 29.6469C68.5247 29.7857 68.2876 29.9708 68.091 30.2021C67.9059 30.4335 67.7614 30.6995 67.6573 31.0002C67.5647 31.3009 67.5185 31.6132 67.5185 31.9371ZM77.0108 31.139H75.1544C75.2585 30.4566 75.4782 29.8725 75.8137 29.3867C76.1491 28.9009 76.6002 28.5308 77.1669 28.2763C77.7337 28.0103 78.3987 27.8773 79.1621 27.8773C79.9949 27.8773 80.6888 28.0335 81.244 28.3457C81.8108 28.6465 82.2329 29.0686 82.5105 29.6123C82.7881 30.1559 82.9269 30.7862 82.9269 31.5033V35.112C82.9269 35.6672 82.95 36.1183 82.9963 36.4653C83.0541 36.8123 83.1351 37.113 83.2392 37.3674H81.2961C81.192 37.1361 81.1284 36.8469 81.1052 36.5C81.0821 36.153 81.0705 35.8002 81.0705 35.4416V31.5207C81.0705 30.8498 80.9028 30.3351 80.5674 29.9766C80.2435 29.618 79.7288 29.4388 79.0233 29.4388C78.4219 29.4388 77.9534 29.5949 77.618 29.9072C77.2941 30.2079 77.0917 30.6185 77.0108 31.139ZM81.3308 31.7289V32.9954C80.3823 32.9954 79.6074 33.0416 79.0059 33.1342C78.4045 33.2267 77.9361 33.3597 77.6006 33.5332C77.2652 33.6951 77.0339 33.8918 76.9067 34.1231C76.7794 34.3429 76.7158 34.5915 76.7158 34.8691C76.7158 35.2624 76.8662 35.5747 77.1669 35.806C77.4676 36.0257 77.8609 36.1356 78.3467 36.1356C78.8672 36.1356 79.3298 36.0142 79.7346 35.7713C80.151 35.5168 80.4749 35.1814 80.7062 34.765C80.9491 34.3486 81.0705 33.8976 81.0705 33.4118H81.9033C81.857 34.152 81.7125 34.7882 81.4696 35.3202C81.2267 35.8523 80.9144 36.286 80.5327 36.6214C80.1626 36.9568 79.7578 37.2055 79.3182 37.3674C78.8787 37.5178 78.4392 37.593 77.9997 37.593C77.3751 37.593 76.8257 37.4947 76.3515 37.298C75.8773 37.1014 75.5072 36.8065 75.2411 36.4132C74.9751 36.02 74.8421 35.5284 74.8421 34.9385C74.8421 34.3024 75.0156 33.7588 75.3626 33.3077C75.7096 32.8566 76.23 32.5096 76.924 32.2667C77.5717 32.0469 78.2426 31.9024 78.9365 31.833C79.6305 31.7636 80.4286 31.7289 81.3308 31.7289ZM84.821 37.3674V28.1202H86.6774V37.3674H84.821ZM86.6774 31.9371H85.9487C86.0065 31.0349 86.1858 30.2831 86.4865 29.6816C86.7988 29.0802 87.2094 28.6291 87.7183 28.3284C88.2272 28.0277 88.8113 27.8773 89.4706 27.8773C90.1183 27.8773 90.6735 28.0045 91.1362 28.259C91.5988 28.5019 91.9574 28.872 92.2118 29.3694C92.4663 29.8551 92.5935 30.4624 92.5935 31.191V37.3674H90.7545V31.5727C90.7545 31.1216 90.6851 30.74 90.5463 30.4277C90.4075 30.1038 90.2051 29.8551 89.939 29.6816C89.673 29.5082 89.326 29.4214 88.8981 29.4214C88.5511 29.4214 88.2388 29.4966 87.9612 29.6469C87.6836 29.7857 87.4465 29.9708 87.2499 30.2021C87.0648 30.4335 86.9203 30.6995 86.8162 31.0002C86.7236 31.3009 86.6774 31.6132 86.6774 31.9371ZM94.6603 34.6089V25.9862H96.5166V34.5048C96.5166 35.0368 96.6207 35.4301 96.8289 35.6845C97.0487 35.939 97.4766 36.0662 98.1128 36.0662H98.4771V37.4195C98.3846 37.4773 98.2284 37.5178 98.0087 37.5409C97.8005 37.5756 97.5692 37.593 97.3147 37.593C96.4241 37.593 95.7591 37.3443 95.3195 36.8469C94.88 36.3496 94.6603 35.6036 94.6603 34.6089ZM93.4111 29.5602V28.1202H98.5118V29.5602H93.4111ZM103.342 37.593C102.451 37.593 101.682 37.4021 101.035 37.0204C100.387 36.6272 99.8895 36.0662 99.5425 35.3376C99.1955 34.6089 99.022 33.7472 99.022 32.7525C99.022 31.7 99.1955 30.8151 99.5425 30.098C99.901 29.3694 100.404 28.82 101.052 28.4498C101.711 28.0682 102.475 27.8773 103.342 27.8773C104.244 27.8773 105.019 28.0739 105.667 28.4672C106.315 28.8604 106.806 29.4214 107.142 30.1501C107.489 30.8672 107.662 31.7347 107.662 32.7525C107.662 33.7819 107.489 34.6609 107.142 35.3896C106.795 36.1067 106.297 36.6561 105.649 37.0378C105.002 37.4079 104.233 37.593 103.342 37.593ZM103.342 36.0315C104.129 36.0315 104.73 35.7482 105.146 35.1814C105.563 34.6147 105.771 33.805 105.771 32.7525C105.771 31.6884 105.563 30.873 105.146 30.3062C104.73 29.7279 104.129 29.4388 103.342 29.4388C102.555 29.4388 101.954 29.7221 101.538 30.2889C101.121 30.8556 100.913 31.6768 100.913 32.7525C100.913 33.805 101.121 34.6147 101.538 35.1814C101.966 35.7482 102.567 36.0315 103.342 36.0315ZM109.036 37.3674V28.1202H110.892V37.3674H109.036ZM110.892 31.9371H110.163C110.221 31.0349 110.395 30.2831 110.684 29.6816C110.973 29.0802 111.36 28.6291 111.846 28.3284C112.332 28.0277 112.881 27.8773 113.494 27.8773C114.096 27.8773 114.611 28.0045 115.038 28.259C115.478 28.5019 115.813 28.872 116.045 29.3694C116.288 29.8551 116.409 30.4624 116.409 31.191V37.3674H114.553V31.5727C114.553 31.1216 114.495 30.74 114.379 30.4277C114.264 30.1038 114.084 29.8551 113.841 29.6816C113.598 29.5082 113.286 29.4214 112.905 29.4214C112.592 29.4214 112.309 29.4966 112.054 29.6469C111.811 29.7857 111.598 29.9708 111.412 30.2021C111.239 30.4335 111.106 30.6995 111.013 31.0002C110.932 31.3009 110.892 31.6132 110.892 31.9371ZM116.409 31.9371H115.455C115.513 31.0349 115.692 30.2831 115.993 29.6816C116.293 29.0802 116.692 28.6291 117.19 28.3284C117.699 28.0277 118.277 27.8773 118.925 27.8773C119.538 27.8773 120.07 28.0045 120.521 28.259C120.972 28.5019 121.319 28.872 121.562 29.3694C121.805 29.8551 121.926 30.4624 121.926 31.191V37.3674H120.07V31.5727C120.07 31.1216 120.012 30.74 119.896 30.4277C119.781 30.1038 119.601 29.8551 119.358 29.6816C119.116 29.5082 118.803 29.4214 118.422 29.4214C118.109 29.4214 117.826 29.4966 117.571 29.6469C117.329 29.7857 117.12 29.9708 116.947 30.2021C116.773 30.4335 116.64 30.6995 116.548 31.0002C116.455 31.3009 116.409 31.6132 116.409 31.9371Z" fill="white"/>
<path d="M40.1204 22.7891H31.4457C29.0503 22.7891 27.1084 24.731 27.1084 27.1264V35.8011C27.1084 38.1966 29.0503 40.1385 31.4457 40.1385H40.1204C42.5159 40.1385 44.4578 38.1966 44.4578 35.8011V27.1264C44.4578 24.731 42.5159 22.7891 40.1204 22.7891Z" fill="#AB9FF2"/>
<path d="M31.3135 36.3433C32.8079 36.3433 33.931 35.0426 34.6012 34.0149C34.5197 34.2423 34.4744 34.4696 34.4744 34.688C34.4744 35.2882 34.8186 35.7158 35.4979 35.7158C36.4307 35.7158 37.427 34.8972 37.9433 34.0149C37.907 34.1423 37.8889 34.2605 37.8889 34.3697C37.8889 34.788 38.1245 35.0517 38.6044 35.0517C40.1169 35.0517 41.6386 32.3687 41.6386 30.0222C41.6386 28.1941 40.7147 26.5842 38.3961 26.5842C34.3204 26.5842 29.9277 31.5684 29.9277 34.788C29.9277 36.0522 30.607 36.3433 31.3135 36.3433ZM36.9923 29.8221C36.9923 29.3673 37.2458 29.049 37.6172 29.049C37.9795 29.049 38.2331 29.3673 38.2331 29.8221C38.2331 30.2768 37.9795 30.6043 37.6172 30.6043C37.2458 30.6043 36.9923 30.2768 36.9923 29.8221ZM38.9306 29.8221C38.9306 29.3673 39.1841 29.049 39.5555 29.049C39.9177 29.049 40.1713 29.3673 40.1713 29.8221C40.1713 30.2768 39.9177 30.6043 39.5555 30.6043C39.1841 30.6043 38.9306 30.2768 38.9306 29.8221Z" fill="white"/>
<path d="M276.291 36.8674V26.5445H277.992V36.8674H276.291ZM279.829 35.486C280.567 35.486 281.195 35.3392 281.711 35.0457C282.237 34.7421 282.637 34.312 282.91 33.7554C283.194 33.1886 283.335 32.5106 283.335 31.7212C283.335 30.9216 283.194 30.2385 282.91 29.6718C282.637 29.105 282.237 28.6749 281.711 28.3814C281.195 28.0778 280.567 27.926 279.829 27.926H277.521V26.5445H279.829C280.911 26.5445 281.843 26.752 282.622 27.1669C283.401 27.5819 284.003 28.1739 284.428 28.9431C284.853 29.7123 285.066 30.6383 285.066 31.7212C285.066 32.7939 284.853 33.7149 284.428 34.4841C284.003 35.2532 283.401 35.8453 282.622 36.2602C281.843 36.665 280.911 36.8674 279.829 36.8674H277.521V35.486H279.829ZM292.841 32.0248L291.915 32.7838C291.915 31.8629 291.733 31.1544 291.368 30.6585C291.004 30.1626 290.483 29.9147 289.805 29.9147C289.117 29.9147 288.59 30.1677 288.226 30.6737C287.872 31.1696 287.695 31.8882 287.695 32.8294C287.695 33.7503 287.882 34.4638 288.256 34.9698C288.641 35.4657 289.182 35.7137 289.881 35.7137C290.397 35.7137 290.827 35.5923 291.171 35.3494C291.525 35.1065 291.773 34.732 291.915 34.226H293.615C293.393 35.1672 292.947 35.8756 292.279 36.3513C291.622 36.8269 290.822 37.0648 289.881 37.0648C289.091 37.0648 288.408 36.8978 287.831 36.5638C287.255 36.2197 286.809 35.7289 286.495 35.0913C286.192 34.4537 286.04 33.6997 286.04 32.8294C286.04 31.9084 286.192 31.1342 286.495 30.5067C286.809 29.8691 287.249 29.3884 287.816 29.0645C288.383 28.7306 289.046 28.5636 289.805 28.5636C290.584 28.5636 291.252 28.7356 291.809 29.0797C292.365 29.4137 292.795 29.8894 293.099 30.5067C293.403 31.1241 293.555 31.8679 293.555 32.7383V33.133H286.708V32.0248H292.841ZM295.014 34.4537V26.9089H296.639V34.3626C296.639 34.8282 296.73 35.1723 296.912 35.3949C297.104 35.6176 297.479 35.7289 298.035 35.7289H298.354V36.913C298.273 36.9636 298.137 36.999 297.944 37.0192C297.762 37.0496 297.56 37.0648 297.337 37.0648C296.558 37.0648 295.976 36.8472 295.591 36.412C295.207 35.9768 295.014 35.3241 295.014 34.4537ZM293.921 30.0361V28.7761H298.385V30.0361H293.921ZM305.632 32.0248L304.706 32.7838C304.706 31.8629 304.524 31.1544 304.159 30.6585C303.795 30.1626 303.274 29.9147 302.596 29.9147C301.908 29.9147 301.381 30.1677 301.017 30.6737C300.663 31.1696 300.486 31.8882 300.486 32.8294C300.486 33.7503 300.673 34.4638 301.047 34.9698C301.432 35.4657 301.973 35.7137 302.672 35.7137C303.188 35.7137 303.618 35.5923 303.962 35.3494C304.316 35.1065 304.564 34.732 304.706 34.226H306.406C306.184 35.1672 305.738 35.8756 305.07 36.3513C304.412 36.8269 303.613 37.0648 302.672 37.0648C301.882 37.0648 301.199 36.8978 300.622 36.5638C300.045 36.2197 299.6 35.7289 299.286 35.0913C298.983 34.4537 298.831 33.6997 298.831 32.8294C298.831 31.9084 298.983 31.1342 299.286 30.5067C299.6 29.8691 300.04 29.3884 300.607 29.0645C301.174 28.7306 301.837 28.5636 302.596 28.5636C303.375 28.5636 304.043 28.7356 304.6 29.0797C305.156 29.4137 305.586 29.8894 305.89 30.5067C306.194 31.1241 306.345 31.8679 306.345 32.7383V33.133H299.499V32.0248H305.632ZM314.439 31.5997H312.815C312.714 31.0229 312.491 30.6029 312.147 30.3397C311.813 30.0665 311.408 29.9298 310.933 29.9298C310.255 29.9298 309.738 30.1778 309.384 30.6737C309.03 31.1696 308.853 31.8882 308.853 32.8294C308.853 33.7503 309.035 34.4638 309.399 34.9698C309.774 35.4657 310.3 35.7137 310.978 35.7137C311.464 35.7137 311.869 35.5821 312.193 35.319C312.527 35.0559 312.754 34.6662 312.876 34.1501H314.485C314.313 35.1621 313.903 35.9009 313.255 36.3665C312.618 36.832 311.849 37.0648 310.948 37.0648C310.169 37.0648 309.501 36.8978 308.944 36.5638C308.387 36.2197 307.957 35.7289 307.654 35.0913C307.35 34.4537 307.198 33.6997 307.198 32.8294C307.198 31.9084 307.35 31.1342 307.654 30.5067C307.957 29.8691 308.387 29.3884 308.944 29.0645C309.501 28.7306 310.163 28.5636 310.933 28.5636C311.54 28.5636 312.091 28.68 312.587 28.9127C313.083 29.1354 313.493 29.4694 313.817 29.9147C314.141 30.36 314.348 30.9216 314.439 31.5997ZM315.832 34.4537V26.9089H317.456V34.3626C317.456 34.8282 317.547 35.1723 317.729 35.3949C317.922 35.6176 318.296 35.7289 318.853 35.7289H319.171V36.913C319.09 36.9636 318.954 36.999 318.762 37.0192C318.579 37.0496 318.377 37.0648 318.154 37.0648C317.375 37.0648 316.793 36.8472 316.409 36.412C316.024 35.9768 315.832 35.3241 315.832 34.4537ZM314.739 30.0361V28.7761H319.202V30.0361H314.739ZM326.449 32.0248L325.523 32.7838C325.523 31.8629 325.341 31.1544 324.977 30.6585C324.612 30.1626 324.091 29.9147 323.413 29.9147C322.725 29.9147 322.199 30.1677 321.834 30.6737C321.48 31.1696 321.303 31.8882 321.303 32.8294C321.303 33.7503 321.49 34.4638 321.865 34.9698C322.249 35.4657 322.791 35.7137 323.489 35.7137C324.005 35.7137 324.435 35.5923 324.779 35.3494C325.133 35.1065 325.381 34.732 325.523 34.226H327.223C327.001 35.1672 326.555 35.8756 325.887 36.3513C325.23 36.8269 324.43 37.0648 323.489 37.0648C322.699 37.0648 322.016 36.8978 321.439 36.5638C320.863 36.2197 320.417 35.7289 320.104 35.0913C319.8 34.4537 319.648 33.6997 319.648 32.8294C319.648 31.9084 319.8 31.1342 320.104 30.5067C320.417 29.8691 320.858 29.3884 321.424 29.0645C321.991 28.7306 322.654 28.5636 323.413 28.5636C324.192 28.5636 324.86 28.7356 325.417 29.0797C325.973 29.4137 326.404 29.8894 326.707 30.5067C327.011 31.1241 327.163 31.8679 327.163 32.7383V33.133H320.316V32.0248H326.449ZM331.446 37.0648C330.738 37.0648 330.125 36.8978 329.609 36.5638C329.093 36.2197 328.698 35.7289 328.425 35.0913C328.152 34.4537 328.015 33.6997 328.015 32.8294C328.015 31.453 328.324 30.4004 328.941 29.6718C329.559 28.933 330.394 28.5636 331.446 28.5636C332.357 28.5636 333.081 28.9279 333.617 29.6566C334.164 30.3853 334.437 31.4429 334.437 32.8294C334.437 33.6997 334.315 34.4537 334.072 35.0913C333.83 35.7188 333.48 36.2045 333.025 36.5486C332.58 36.8927 332.053 37.0648 331.446 37.0648ZM331.659 35.6985C332.306 35.6985 332.797 35.4556 333.131 34.9698C333.475 34.4739 333.647 33.7604 333.647 32.8294C333.647 31.8983 333.47 31.1848 333.116 30.6889C332.772 30.1829 332.286 29.9298 331.659 29.9298C331.011 29.9298 330.515 30.1778 330.171 30.6737C329.837 31.1696 329.67 31.8882 329.67 32.8294C329.67 33.7503 329.842 34.4588 330.186 34.9547C330.54 35.4506 331.031 35.6985 331.659 35.6985ZM333.647 36.8674V25.9373H335.272V36.8674H333.647Z" fill="#ADB9D2"/>
<path d="M40.1204 63.0361H31.4457C29.0503 63.0361 27.1084 64.978 27.1084 67.3735V76.0482C27.1084 78.4436 29.0503 80.3855 31.4457 80.3855H40.1204C42.5159 80.3855 44.4578 78.4436 44.4578 76.0482V67.3735C44.4578 64.978 42.5159 63.0361 40.1204 63.0361Z" fill="#AB9FF2"/>
<path d="M31.3135 76.5903C32.8079 76.5903 33.931 75.2897 34.6012 74.2619C34.5197 74.4893 34.4744 74.7167 34.4744 74.9351C34.4744 75.5353 34.8186 75.9628 35.4979 75.9628C36.4307 75.9628 37.427 75.1443 37.9433 74.2619C37.907 74.3893 37.8889 74.5075 37.8889 74.6167C37.8889 75.0351 38.1245 75.2988 38.6044 75.2988C40.1169 75.2988 41.6386 72.6158 41.6386 70.2692C41.6386 68.4411 40.7147 66.8313 38.3961 66.8313C34.3204 66.8313 29.9277 71.8154 29.9277 75.0351C29.9277 76.2993 30.607 76.5903 31.3135 76.5903ZM36.9923 70.0692C36.9923 69.6144 37.2458 69.2961 37.6172 69.2961C37.9795 69.2961 38.2331 69.6144 38.2331 70.0692C38.2331 70.5239 37.9795 70.8513 37.6172 70.8513C37.2458 70.8513 36.9923 70.5239 36.9923 70.0692ZM38.9306 70.0692C38.9306 69.6144 39.1841 69.2961 39.5555 69.2961C39.9177 69.2961 40.1713 69.6144 40.1713 70.0692C40.1713 70.5239 39.9177 70.8513 39.5555 70.8513C39.1841 70.8513 38.9306 70.5239 38.9306 70.0692Z" fill="white"/>
<g clip-path="url(#clip0_211_8274)">
<mask id="mask1_211_8274" style="mask-type:luminance" maskUnits="userSpaceOnUse" x="27" y="63" width="18" height="18">
<path d="M44.4578 63.0361H27.1084V80.3855H44.4578V63.0361Z" fill="white"/>
</mask>
<g mask="url(#mask1_211_8274)">
<path d="M30.8953 63.0959H40.6714C42.7297 63.0959 44.3982 64.7645 44.3982 66.8228V76.5989C44.3982 78.6572 42.7297 80.3257 40.6714 80.3257H30.8953C28.837 80.3257 27.1685 78.6572 27.1685 76.5989V66.8228C27.1685 64.7645 28.837 63.0959 30.8953 63.0959Z" fill="#FFEF46" stroke="#EEDA0F" stroke-width="0.119651"/>
<path d="M35.5171 72.2033L36.3716 71.3777L37.9648 71.8991C39.0076 72.2468 39.5291 72.884 39.5291 73.782C39.5291 74.4628 39.2683 74.9118 38.747 75.4911L38.5876 75.6649L38.6455 75.2593C38.8773 73.782 38.4428 73.1447 37.0089 72.6812L35.5171 72.2033ZM33.3735 67.1485L37.7186 68.5969L36.7771 69.4949L34.5177 68.7417C33.7356 68.481 33.4749 68.061 33.3735 67.1775V67.1485ZM33.1128 74.5062L34.0977 73.5647L35.9516 74.1731C36.922 74.4917 37.2551 74.9118 37.1537 75.9691L33.1128 74.5062ZM31.8672 70.3059C31.8672 70.0308 32.012 69.7701 32.2583 69.5528C32.519 69.9294 32.968 70.2625 33.6776 70.4942L35.2129 71.0011L34.3584 71.8267L32.8521 71.3343C32.1569 71.1025 31.8672 70.7549 31.8672 70.3059ZM36.4151 77.9099C39.6014 75.7953 41.3105 74.3614 41.3105 72.5944C41.3105 71.4212 40.6153 70.7694 39.0801 70.2625L37.9214 69.8714L41.0933 66.8299L40.456 66.1491L39.5146 66.9747L35.0681 65.5118C33.6921 65.9608 31.9541 67.2788 31.9541 68.5969C31.9541 68.7417 31.9686 68.8865 32.012 69.0459C30.8678 69.6976 30.4044 70.3059 30.4044 71.0591C30.4044 71.7688 30.7809 72.4785 31.9831 72.8696L32.939 73.1882L29.6367 76.3601L30.274 77.0408L31.3023 76.0994L36.4151 77.9099Z" fill="#02050A"/>
</g>
</g>
<path d="M57.2814 68.3279C57.2814 68.7212 57.3797 69.0392 57.5764 69.2821C57.773 69.5135 58.0448 69.6985 58.3918 69.8373C58.7388 69.9645 59.1204 70.0744 59.5368 70.167C59.9648 70.2479 60.4043 70.3347 60.8554 70.4272C61.3065 70.5082 61.7402 70.6238 62.1566 70.7742C62.5845 70.913 62.9662 71.1096 63.3017 71.3641C63.6486 71.607 63.9204 71.925 64.1171 72.3183C64.3253 72.7115 64.4294 73.2089 64.4294 73.8103C64.4294 74.5853 64.2327 75.2446 63.8395 75.7882C63.4578 76.3318 62.9315 76.7424 62.2607 77.02C61.5898 77.2976 60.8207 77.4364 59.9532 77.4364C59.0858 77.4364 58.3108 77.3033 57.6284 77.0373C56.9576 76.7713 56.3966 76.3665 55.9455 75.8229C55.506 75.2792 55.2053 74.5968 55.0433 73.7756H57.0732C57.2467 74.4465 57.5764 74.9612 58.0621 75.3197C58.5479 75.6667 59.1841 75.8402 59.9706 75.8402C60.7802 75.8402 61.3932 75.6783 61.8096 75.3544C62.226 75.0306 62.4342 74.6026 62.4342 74.0706C62.4342 73.6542 62.3359 73.3188 62.1392 73.0643C61.9426 72.7983 61.6708 72.5959 61.3238 72.4571C60.9768 72.3067 60.5894 72.1853 60.1614 72.0927C59.745 71.9886 59.3113 71.8903 58.8602 71.7978C58.4091 71.7053 57.9696 71.5896 57.5417 71.4508C57.1253 71.312 56.7436 71.127 56.3966 70.8956C56.0612 70.6527 55.7894 70.3405 55.5812 69.9588C55.3845 69.5771 55.2862 69.0855 55.2862 68.4841C55.2862 67.8942 55.4482 67.3506 55.772 66.8532C56.0959 66.3443 56.5643 65.9395 57.1773 65.6388C57.8019 65.338 58.5653 65.1877 59.4674 65.1877C60.2424 65.1877 60.9537 65.3207 61.6014 65.5867C62.2607 65.8412 62.8101 66.2402 63.2496 66.7838C63.6891 67.3159 63.9783 68.0156 64.1171 68.8831H62.0525C61.8906 68.1544 61.5841 67.6224 61.133 67.287C60.6819 66.9515 60.1094 66.7838 59.4154 66.7838C58.7445 66.7838 58.2183 66.9284 57.8366 67.2176C57.4665 67.4952 57.2814 67.8653 57.2814 68.3279ZM69.6052 77.4364C68.7146 77.4364 67.9454 77.2455 67.2977 76.8638C66.65 76.4706 66.1526 75.9096 65.8057 75.1809C65.4587 74.4523 65.2852 73.5906 65.2852 72.5959C65.2852 71.5433 65.4587 70.6585 65.8057 69.9414C66.1642 69.2127 66.6673 68.6633 67.3151 68.2932C67.9743 67.9115 68.7377 67.7207 69.6052 67.7207C70.5073 67.7207 71.2823 67.9173 71.93 68.3106C72.5777 68.7038 73.0693 69.2648 73.4047 69.9935C73.7517 70.7106 73.9252 71.578 73.9252 72.5959C73.9252 73.6253 73.7517 74.5043 73.4047 75.233C73.0577 75.9501 72.5604 76.4995 71.9126 76.8812C71.2649 77.2513 70.4958 77.4364 69.6052 77.4364ZM69.6052 75.8749C70.3917 75.8749 70.9931 75.5915 71.4095 75.0248C71.8259 74.458 72.0341 73.6484 72.0341 72.5959C72.0341 71.5318 71.8259 70.7164 71.4095 70.1496C70.9931 69.5713 70.3917 69.2821 69.6052 69.2821C68.8187 69.2821 68.2172 69.5655 67.8008 70.1323C67.3845 70.699 67.1763 71.5202 67.1763 72.5959C67.1763 73.6484 67.3845 74.458 67.8008 75.0248C68.2288 75.5915 68.8302 75.8749 69.6052 75.8749ZM75.2988 77.2108V64.7192H77.1551V77.2108H75.2988ZM79.1387 67.4778C79.1387 66.4715 79.3526 65.7255 79.7806 65.2397C80.2201 64.7424 80.8736 64.4937 81.7411 64.4937C81.9724 64.4937 82.1748 64.5111 82.3483 64.5458C82.5218 64.5805 82.6548 64.6209 82.7473 64.6672V65.9164H82.5912C81.9435 65.9164 81.5155 66.0494 81.3073 66.3154C81.0992 66.5699 80.9951 66.9631 80.9951 67.4952V77.2108H79.1387V67.4778ZM77.9242 69.3862V67.9636H82.7473V69.3862H77.9242ZM83.8751 77.2108V64.7192H85.7314V77.2108H83.8751ZM89.2803 70.9824H87.424C87.5281 70.3 87.7478 69.7159 88.0832 69.2301C88.4187 68.7443 88.8697 68.3742 89.4365 68.1197C90.0032 67.8537 90.6683 67.7207 91.4317 67.7207C92.2644 67.7207 92.9584 67.8768 93.5136 68.1891C94.0803 68.4899 94.5025 68.912 94.7801 69.4556C95.0577 69.9992 95.1965 70.6296 95.1965 71.3467V74.9554C95.1965 75.5106 95.2196 75.9617 95.2659 76.3086C95.3237 76.6556 95.4047 76.9564 95.5088 77.2108H93.5656C93.4615 76.9795 93.3979 76.6903 93.3748 76.3433C93.3517 75.9964 93.3401 75.6436 93.3401 75.285V71.3641C93.3401 70.6932 93.1724 70.1785 92.837 69.82C92.5131 69.4614 91.9984 69.2821 91.2929 69.2821C90.6914 69.2821 90.223 69.4383 89.8876 69.7506C89.5637 70.0513 89.3613 70.4619 89.2803 70.9824ZM93.6003 71.5723V72.8388C92.6519 72.8388 91.877 72.885 91.2755 72.9776C90.6741 73.0701 90.2056 73.2031 89.8702 73.3766C89.5348 73.5385 89.3035 73.7352 89.1762 73.9665C89.049 74.1862 88.9854 74.4349 88.9854 74.7125C88.9854 75.1058 89.1358 75.418 89.4365 75.6494C89.7372 75.8691 90.1305 75.979 90.6162 75.979C91.1367 75.979 91.5994 75.8576 92.0042 75.6147C92.4206 75.3602 92.7444 75.0248 92.9758 74.6084C93.2187 74.192 93.3401 73.7409 93.3401 73.2552H94.1729C94.1266 73.9954 93.982 74.6315 93.7391 75.1636C93.4962 75.6956 93.184 76.1294 92.8023 76.4648C92.4322 76.8002 92.0273 77.0489 91.5878 77.2108C91.1483 77.3612 90.7088 77.4364 90.2693 77.4364C89.6447 77.4364 89.0953 77.338 88.6211 77.1414C88.1469 76.9448 87.7767 76.6499 87.5107 76.2566C87.2447 75.8633 87.1117 75.3718 87.1117 74.7819C87.1117 74.1458 87.2852 73.6021 87.6322 73.1511C87.9791 72.7 88.4996 72.353 89.1936 72.1101C89.8413 71.8903 90.5122 71.7458 91.2061 71.6764C91.9001 71.607 92.6982 71.5723 93.6003 71.5723ZM97.0906 77.2108V67.9636H98.9469V77.2108H97.0906ZM98.9469 72.1621H98.253C98.2992 71.1212 98.4785 70.2768 98.7908 69.6291C99.1147 68.9699 99.5137 68.4899 99.9879 68.1891C100.474 67.8768 101.006 67.7207 101.584 67.7207C101.769 67.7207 101.943 67.7438 102.105 67.7901C102.266 67.8248 102.388 67.8826 102.469 67.9636V69.5944C102.33 69.5482 102.18 69.5192 102.018 69.5077C101.856 69.4846 101.677 69.473 101.48 69.473C101.04 69.473 100.659 69.5366 100.335 69.6638C100.023 69.7911 99.7624 69.9761 99.5542 70.219C99.346 70.4503 99.1898 70.7337 99.0857 71.0691C98.9932 71.393 98.9469 71.7573 98.9469 72.1621ZM110.45 71.6764L109.392 72.5438C109.392 71.4913 109.184 70.6817 108.768 70.1149C108.351 69.5482 107.755 69.2648 106.981 69.2648C106.194 69.2648 105.593 69.5539 105.176 70.1323C104.771 70.699 104.569 71.5202 104.569 72.5959C104.569 73.6484 104.783 74.4638 105.211 75.0421C105.65 75.6089 106.269 75.8923 107.067 75.8923C107.657 75.8923 108.149 75.7535 108.542 75.4759C108.947 75.1983 109.23 74.7703 109.392 74.192H111.335C111.081 75.2677 110.572 76.0773 109.808 76.6209C109.057 77.1646 108.143 77.4364 107.067 77.4364C106.165 77.4364 105.384 77.2455 104.725 76.8638C104.066 76.4706 103.557 75.9096 103.198 75.1809C102.851 74.4523 102.678 73.5906 102.678 72.5959C102.678 71.5433 102.851 70.6585 103.198 69.9414C103.557 69.2127 104.06 68.6633 104.708 68.2932C105.355 67.9115 106.113 67.7207 106.981 67.7207C107.871 67.7207 108.635 67.9173 109.271 68.3106C109.907 68.6923 110.398 69.2359 110.745 69.9414C111.092 70.647 111.266 71.4971 111.266 72.4918V72.9429H103.441V71.6764H110.45Z" fill="white"/>
<path d="M274.243 76.7108V66.3879H275.943V76.7108H274.243ZM277.78 75.3294C278.519 75.3294 279.146 75.1826 279.663 74.8891C280.189 74.5855 280.589 74.1554 280.862 73.5988C281.145 73.032 281.287 72.3539 281.287 71.5646C281.287 70.765 281.145 70.0819 280.862 69.5152C280.589 68.9484 280.189 68.5183 279.663 68.2248C279.146 67.9212 278.519 67.7694 277.78 67.7694H275.473V66.3879H277.78C278.863 66.3879 279.794 66.5954 280.573 67.0103C281.353 67.4253 281.955 68.0173 282.38 68.7865C282.805 69.5556 283.018 70.4817 283.018 71.5646C283.018 72.6373 282.805 73.5583 282.38 74.3274C281.955 75.0966 281.353 75.6886 280.573 76.1036C279.794 76.5084 278.863 76.7108 277.78 76.7108H275.473V75.3294H277.78ZM290.793 71.8682L289.867 72.6272C289.867 71.7062 289.684 70.9978 289.32 70.5019C288.956 70.006 288.435 69.758 287.757 69.758C287.068 69.758 286.542 70.0111 286.178 70.5171C285.824 71.013 285.646 71.7315 285.646 72.6727C285.646 73.5937 285.834 74.3072 286.208 74.8132C286.593 75.3091 287.134 75.5571 287.832 75.5571C288.349 75.5571 288.779 75.4356 289.123 75.1927C289.477 74.9499 289.725 74.5754 289.867 74.0694H291.567C291.344 75.0106 290.899 75.719 290.231 76.1947C289.573 76.6703 288.774 76.9082 287.832 76.9082C287.043 76.9082 286.36 76.7412 285.783 76.4072C285.206 76.0631 284.761 75.5723 284.447 74.9347C284.144 74.2971 283.992 73.5431 283.992 72.6727C283.992 71.7518 284.144 70.9776 284.447 70.3501C284.761 69.7125 285.201 69.2318 285.768 68.9079C286.335 68.5739 286.998 68.407 287.757 68.407C288.536 68.407 289.204 68.579 289.76 68.9231C290.317 69.2571 290.747 69.7327 291.051 70.3501C291.354 70.9674 291.506 71.7113 291.506 72.5817V72.9764H284.66V71.8682H290.793ZM292.966 74.2971V66.7523H294.59V74.206C294.59 74.6715 294.682 75.0156 294.864 75.2383C295.056 75.4609 295.43 75.5723 295.987 75.5723H296.306V76.7564C296.225 76.807 296.088 76.8424 295.896 76.8626C295.714 76.893 295.511 76.9082 295.289 76.9082C294.51 76.9082 293.928 76.6906 293.543 76.2554C293.158 75.8202 292.966 75.1674 292.966 74.2971ZM291.873 69.8795V68.6195H296.336V69.8795H291.873ZM303.584 71.8682L302.658 72.6272C302.658 71.7062 302.475 70.9978 302.111 70.5019C301.747 70.006 301.226 69.758 300.547 69.758C299.859 69.758 299.333 70.0111 298.969 70.5171C298.614 71.013 298.437 71.7315 298.437 72.6727C298.437 73.5937 298.625 74.3072 298.999 74.8132C299.384 75.3091 299.925 75.5571 300.623 75.5571C301.14 75.5571 301.57 75.4356 301.914 75.1927C302.268 74.9499 302.516 74.5754 302.658 74.0694H304.358C304.135 75.0106 303.69 75.719 303.022 76.1947C302.364 76.6703 301.565 76.9082 300.623 76.9082C299.834 76.9082 299.151 76.7412 298.574 76.4072C297.997 76.0631 297.552 75.5723 297.238 74.9347C296.934 74.2971 296.783 73.5431 296.783 72.6727C296.783 71.7518 296.934 70.9776 297.238 70.3501C297.552 69.7125 297.992 69.2318 298.559 68.9079C299.126 68.5739 299.788 68.407 300.547 68.407C301.327 68.407 301.995 68.579 302.551 68.9231C303.108 69.2571 303.538 69.7327 303.842 70.3501C304.145 70.9674 304.297 71.7113 304.297 72.5817V72.9764H297.451V71.8682H303.584ZM312.391 71.4431H310.767C310.666 70.8662 310.443 70.4462 310.099 70.1831C309.765 69.9099 309.36 69.7732 308.884 69.7732C308.206 69.7732 307.69 70.0212 307.336 70.5171C306.982 71.013 306.805 71.7315 306.805 72.6727C306.805 73.5937 306.987 74.3072 307.351 74.8132C307.726 75.3091 308.252 75.5571 308.93 75.5571C309.416 75.5571 309.82 75.4255 310.144 75.1624C310.478 74.8992 310.706 74.5096 310.827 73.9935H312.437C312.265 75.0055 311.855 75.7443 311.207 76.2099C310.569 76.6754 309.8 76.9082 308.899 76.9082C308.12 76.9082 307.452 76.7412 306.896 76.4072C306.339 76.0631 305.909 75.5723 305.605 74.9347C305.302 74.2971 305.15 73.5431 305.15 72.6727C305.15 71.7518 305.302 70.9776 305.605 70.3501C305.909 69.7125 306.339 69.2318 306.896 68.9079C307.452 68.5739 308.115 68.407 308.884 68.407C309.492 68.407 310.043 68.5233 310.539 68.7561C311.035 68.9788 311.445 69.3127 311.769 69.758C312.093 70.2033 312.3 70.765 312.391 71.4431ZM313.783 74.2971V66.7523H315.408V74.206C315.408 74.6715 315.499 75.0156 315.681 75.2383C315.873 75.4609 316.248 75.5723 316.804 75.5723H317.123V76.7564C317.042 76.807 316.905 76.8424 316.713 76.8626C316.531 76.893 316.329 76.9082 316.106 76.9082C315.327 76.9082 314.745 76.6906 314.36 76.2554C313.976 75.8202 313.783 75.1674 313.783 74.2971ZM312.69 69.8795V68.6195H317.153V69.8795H312.69ZM324.401 71.8682L323.475 72.6272C323.475 71.7062 323.293 70.9978 322.928 70.5019C322.564 70.006 322.043 69.758 321.365 69.758C320.676 69.758 320.15 70.0111 319.786 70.5171C319.432 71.013 319.255 71.7315 319.255 72.6727C319.255 73.5937 319.442 74.3072 319.816 74.8132C320.201 75.3091 320.742 75.5571 321.441 75.5571C321.957 75.5571 322.387 75.4356 322.731 75.1927C323.085 74.9499 323.333 74.5754 323.475 74.0694H325.175C324.952 75.0106 324.507 75.719 323.839 76.1947C323.181 76.6703 322.382 76.9082 321.441 76.9082C320.651 76.9082 319.968 76.7412 319.391 76.4072C318.814 76.0631 318.369 75.5723 318.055 74.9347C317.752 74.2971 317.6 73.5431 317.6 72.6727C317.6 71.7518 317.752 70.9776 318.055 70.3501C318.369 69.7125 318.809 69.2318 319.376 68.9079C319.943 68.5739 320.606 68.407 321.365 68.407C322.144 68.407 322.812 68.579 323.369 68.9231C323.925 69.2571 324.355 69.7327 324.659 70.3501C324.962 70.9674 325.114 71.7113 325.114 72.5817V72.9764H318.268V71.8682H324.401ZM329.398 76.9082C328.689 76.9082 328.077 76.7412 327.561 76.4072C327.045 76.0631 326.65 75.5723 326.377 74.9347C326.104 74.2971 325.967 73.5431 325.967 72.6727C325.967 71.2964 326.276 70.2438 326.893 69.5152C327.51 68.7764 328.345 68.407 329.398 68.407C330.309 68.407 331.032 68.7713 331.569 69.5C332.115 70.2286 332.388 71.2862 332.388 72.6727C332.388 73.5431 332.267 74.2971 332.024 74.9347C331.781 75.5621 331.432 76.0479 330.977 76.392C330.531 76.7361 330.005 76.9082 329.398 76.9082ZM329.61 75.5419C330.258 75.5419 330.749 75.299 331.083 74.8132C331.427 74.3173 331.599 73.6038 331.599 72.6727C331.599 71.7417 331.422 71.0282 331.068 70.5323C330.724 70.0262 330.238 69.7732 329.61 69.7732C328.963 69.7732 328.467 70.0212 328.123 70.5171C327.789 71.013 327.622 71.7315 327.622 72.6727C327.622 73.5937 327.794 74.3021 328.138 74.798C328.492 75.2939 328.983 75.5419 329.61 75.5419ZM331.599 76.7108V65.7807H333.223V76.7108H331.599Z" fill="#ADB9D2"/>
<g clip-path="url(#clip1_211_8274)">
<path d="M40.1204 102.88H31.4457C29.0503 102.88 27.1084 104.821 27.1084 107.217V115.892C27.1084 118.287 29.0503 120.229 31.4457 120.229H40.1204C42.5159 120.229 44.4578 118.287 44.4578 115.892V107.217C44.4578 104.821 42.5159 102.88 40.1204 102.88Z" fill="#AB9FF2"/>
<path d="M31.3135 116.434C32.8079 116.434 33.931 115.133 34.6012 114.105C34.5197 114.333 34.4744 114.56 34.4744 114.778C34.4744 115.379 34.8186 115.806 35.4979 115.806C36.4307 115.806 37.427 114.988 37.9433 114.105C37.907 114.233 37.8889 114.351 37.8889 114.46C37.8889 114.878 38.1245 115.142 38.6044 115.142C40.1169 115.142 41.6386 112.459 41.6386 110.113C41.6386 108.285 40.7147 106.675 38.3961 106.675C34.3204 106.675 29.9277 111.659 29.9277 114.878C29.9277 116.143 30.607 116.434 31.3135 116.434ZM36.9923 109.913C36.9923 109.458 37.2458 109.139 37.6172 109.139C37.9795 109.139 38.2331 109.458 38.2331 109.913C38.2331 110.367 37.9795 110.695 37.6172 110.695C37.2458 110.695 36.9923 110.367 36.9923 109.913ZM38.9306 109.913C38.9306 109.458 39.1841 109.139 39.5555 109.139C39.9177 109.139 40.1713 109.458 40.1713 109.913C40.1713 110.367 39.9177 110.695 39.5555 110.695C39.1841 110.695 38.9306 110.367 38.9306 109.913Z" fill="white"/>
<rect x="26.2397" y="102.258" width="19.52" height="19.52" rx="4.88" fill="#E33E3F"/>
<g clip-path="url(#clip2_211_8274)">
<mask id="mask2_211_8274" style="mask-type:luminance" maskUnits="userSpaceOnUse" x="31" y="105" width="10" height="14">
<path d="M40.346 105.918H31.9585V118.118H40.346V105.918Z" fill="white"/>
</mask>
<g mask="url(#mask2_211_8274)">
<path fill-rule="evenodd" clip-rule="evenodd" d="M36.9468 106.877C37.3902 106.877 37.8061 106.937 38.1912 107.047C37.8142 106.168 37.0314 105.918 36.1602 105.918C35.2872 105.918 34.503 106.169 34.1269 107.052C34.5091 106.938 34.9233 106.877 35.3652 106.877H36.9468ZM35.2638 107.76C33.1582 107.76 31.9585 109.416 31.9585 111.459V113.558C31.9585 113.763 32.1292 113.924 32.3397 113.924H39.9647C40.1753 113.924 40.346 113.763 40.346 113.558V111.459C40.346 109.416 38.9509 107.76 36.8454 107.76H35.2638ZM36.1493 111.477C36.8862 111.477 37.4836 110.88 37.4836 110.143C37.4836 109.406 36.8862 108.809 36.1493 108.809C35.4123 108.809 34.8149 109.406 34.8149 110.143C34.8149 110.88 35.4123 111.477 36.1493 111.477ZM31.9585 115.158C31.9585 114.954 32.1292 114.788 32.3397 114.788H39.9647C40.1753 114.788 40.346 114.954 40.346 115.158V117.378C40.346 117.787 40.0046 118.118 39.5835 118.118H32.721C32.2999 118.118 31.9585 117.787 31.9585 117.378V115.158Z" fill="#0E0F14"/>
</g>
</g>
</g>
<path d="M55.4908 117.054V105.257H57.434V117.054H55.4908ZM60.4181 117.054H56.8961V115.51H60.366C61.0484 115.51 61.5863 115.342 61.9795 115.007C62.3728 114.66 62.5694 114.203 62.5694 113.636C62.5694 113.07 62.3554 112.619 61.9275 112.283C61.5111 111.948 60.927 111.78 60.1752 111.78H56.8961V110.271H59.7414C60.4354 110.271 60.9675 110.114 61.3376 109.802C61.7193 109.49 61.9101 109.079 61.9101 108.57C61.9101 108.027 61.7193 107.599 61.3376 107.286C60.9675 106.963 60.447 106.801 59.7761 106.801H56.8961V105.257H59.8282C61.0773 105.257 62.0663 105.546 62.7949 106.124C63.5352 106.702 63.9053 107.483 63.9053 108.466C63.9053 109.149 63.6913 109.727 63.2634 110.201C62.8354 110.664 62.2224 110.965 61.4243 111.103V110.67C62.4422 110.785 63.2171 111.115 63.7491 111.659C64.2928 112.191 64.5646 112.867 64.5646 113.688C64.5646 114.764 64.1944 115.597 63.4542 116.187C62.7255 116.765 61.7135 117.054 60.4181 117.054ZM67.6834 110.826H65.827C65.9311 110.143 66.1509 109.559 66.4863 109.073C66.8217 108.588 67.2728 108.218 67.8395 107.963C68.4063 107.697 69.0713 107.564 69.8347 107.564C70.6675 107.564 71.3615 107.72 71.9166 108.033C72.4834 108.333 72.9056 108.755 73.1832 109.299C73.4607 109.843 73.5995 110.473 73.5995 111.19V114.799C73.5995 115.354 73.6227 115.805 73.6689 116.152C73.7268 116.499 73.8077 116.8 73.9118 117.054H71.9687C71.8646 116.823 71.801 116.534 71.7779 116.187C71.7547 115.84 71.7432 115.487 71.7432 115.128V111.207C71.7432 110.537 71.5754 110.022 71.24 109.663C70.9162 109.305 70.4015 109.126 69.6959 109.126C69.0945 109.126 68.626 109.282 68.2906 109.594C67.9668 109.895 67.7644 110.305 67.6834 110.826ZM72.0034 111.416V112.682C71.055 112.682 70.28 112.728 69.6786 112.821C69.0771 112.913 68.6087 113.046 68.2733 113.22C67.9379 113.382 67.7065 113.579 67.5793 113.81C67.4521 114.03 67.3885 114.278 67.3885 114.556C67.3885 114.949 67.5388 115.261 67.8395 115.493C68.1403 115.713 68.5335 115.822 69.0193 115.822C69.5398 115.822 70.0024 115.701 70.4072 115.458C70.8236 115.204 71.1475 114.868 71.3788 114.452C71.6217 114.035 71.7432 113.584 71.7432 113.099H72.5759C72.5297 113.839 72.3851 114.475 72.1422 115.007C71.8993 115.539 71.587 115.973 71.2053 116.308C70.8352 116.644 70.4304 116.892 69.9909 117.054C69.5513 117.205 69.1118 117.28 68.6723 117.28C68.0477 117.28 67.4983 117.181 67.0241 116.985C66.5499 116.788 66.1798 116.493 65.9138 116.1C65.6477 115.707 65.5147 115.215 65.5147 114.625C65.5147 113.989 65.6882 113.446 66.0352 112.994C66.3822 112.543 66.9027 112.196 67.5966 111.953C68.2444 111.734 68.9152 111.589 69.6092 111.52C70.3032 111.45 71.1012 111.416 72.0034 111.416ZM83.3182 111.034H81.4618C81.3461 110.375 81.0917 109.895 80.6984 109.594C80.3167 109.282 79.8541 109.126 79.3105 109.126C78.5355 109.126 77.9457 109.409 77.5408 109.976C77.136 110.542 76.9336 111.364 76.9336 112.439C76.9336 113.492 77.1418 114.307 77.5582 114.886C77.9861 115.452 78.5876 115.736 79.3625 115.736C79.9177 115.736 80.3804 115.585 80.7505 115.285C81.1322 114.984 81.3924 114.539 81.5312 113.949H83.3702C83.1736 115.105 82.7052 115.95 81.9649 116.482C81.2363 117.014 80.3572 117.28 79.3278 117.28C78.4372 117.28 77.6738 117.089 77.0377 116.707C76.4016 116.314 75.91 115.753 75.563 115.024C75.216 114.296 75.0425 113.434 75.0425 112.439C75.0425 111.387 75.216 110.502 75.563 109.785C75.91 109.056 76.4016 108.507 77.0377 108.137C77.6738 107.755 78.4314 107.564 79.3105 107.564C80.0044 107.564 80.6348 107.697 81.2016 107.963C81.7683 108.218 82.2367 108.599 82.6069 109.108C82.977 109.617 83.2141 110.259 83.3182 111.034ZM84.6664 117.054V104.563H86.5228V117.054H84.6664ZM86.2105 112.058L90.2009 107.807H92.4216L88.2924 112.058H86.2105ZM86.2105 112.058L88.3098 111.78L92.6645 117.054H90.357L86.2105 112.058ZM97.9571 107.564C98.7783 107.564 99.4781 107.761 100.056 108.154C100.646 108.536 101.097 109.091 101.41 109.819C101.722 110.537 101.878 111.398 101.878 112.405C101.878 113.978 101.525 115.186 100.82 116.031C100.114 116.863 99.16 117.28 97.9571 117.28C96.9162 117.28 96.0834 116.863 95.4588 116.031C94.8458 115.198 94.5393 113.989 94.5393 112.405C94.5393 111.421 94.6781 110.566 94.9557 109.837C95.2333 109.108 95.6323 108.547 96.1528 108.154C96.6733 107.761 97.2747 107.564 97.9571 107.564ZM97.7316 109.126C96.9798 109.126 96.4073 109.409 96.014 109.976C95.6323 110.531 95.4415 111.34 95.4415 112.405C95.4415 113.469 95.6381 114.29 96.0314 114.868C96.4362 115.435 97.0029 115.718 97.7316 115.718C98.4603 115.718 99.0155 115.435 99.3971 114.868C99.7904 114.301 99.987 113.48 99.987 112.405C99.987 111.352 99.7904 110.542 99.3971 109.976C99.0039 109.409 98.4487 109.126 97.7316 109.126ZM95.4415 120.871H93.5851V107.807H95.4415V120.871ZM105.002 110.826H103.145C103.249 110.143 103.469 109.559 103.804 109.073C104.14 108.588 104.591 108.218 105.158 107.963C105.724 107.697 106.389 107.564 107.153 107.564C107.986 107.564 108.68 107.72 109.235 108.033C109.802 108.333 110.224 108.755 110.501 109.299C110.779 109.843 110.918 110.473 110.918 111.19V114.799C110.918 115.354 110.941 115.805 110.987 116.152C111.045 116.499 111.126 116.8 111.23 117.054H109.287C109.183 116.823 109.119 116.534 109.096 116.187C109.073 115.84 109.061 115.487 109.061 115.128V111.207C109.061 110.537 108.894 110.022 108.558 109.663C108.234 109.305 107.72 109.126 107.014 109.126C106.413 109.126 105.944 109.282 105.609 109.594C105.285 109.895 105.083 110.305 105.002 110.826ZM109.322 111.416V112.682C108.373 112.682 107.598 112.728 106.997 112.821C106.395 112.913 105.927 113.046 105.591 113.22C105.256 113.382 105.025 113.579 104.897 113.81C104.77 114.03 104.707 114.278 104.707 114.556C104.707 114.949 104.857 115.261 105.158 115.493C105.458 115.713 105.852 115.822 106.337 115.822C106.858 115.822 107.321 115.701 107.725 115.458C108.142 115.204 108.466 114.868 108.697 114.452C108.94 114.035 109.061 113.584 109.061 113.099H109.894C109.848 113.839 109.703 114.475 109.46 115.007C109.217 115.539 108.905 115.973 108.523 116.308C108.153 116.644 107.749 116.892 107.309 117.054C106.869 117.205 106.43 117.28 105.99 117.28C105.366 117.28 104.816 117.181 104.342 116.985C103.868 116.788 103.498 116.493 103.232 116.1C102.966 115.707 102.833 115.215 102.833 114.625C102.833 113.989 103.006 113.446 103.353 112.994C103.7 112.543 104.221 112.196 104.915 111.953C105.563 111.734 106.233 111.589 106.927 111.52C107.621 111.45 108.419 111.416 109.322 111.416ZM120.636 111.034H118.78C118.664 110.375 118.41 109.895 118.017 109.594C117.635 109.282 117.172 109.126 116.629 109.126C115.854 109.126 115.264 109.409 114.859 109.976C114.454 110.542 114.252 111.364 114.252 112.439C114.252 113.492 114.46 114.307 114.876 114.886C115.304 115.452 115.906 115.736 116.681 115.736C117.236 115.736 117.698 115.585 118.069 115.285C118.45 114.984 118.711 114.539 118.849 113.949H120.688C120.492 115.105 120.023 115.95 119.283 116.482C118.554 117.014 117.675 117.28 116.646 117.28C115.755 117.28 114.992 117.089 114.356 116.707C113.72 116.314 113.228 115.753 112.881 115.024C112.534 114.296 112.361 113.434 112.361 112.439C112.361 111.387 112.534 110.502 112.881 109.785C113.228 109.056 113.72 108.507 114.356 108.137C114.992 107.755 115.75 107.564 116.629 107.564C117.323 107.564 117.953 107.697 118.52 107.963C119.086 108.218 119.555 108.599 119.925 109.108C120.295 109.617 120.532 110.259 120.636 111.034ZM121.985 117.054V104.563H123.841V117.054H121.985ZM123.529 112.058L127.519 107.807H129.74L125.611 112.058H123.529ZM123.529 112.058L125.628 111.78L129.983 117.054H127.675L123.529 112.058Z" fill="white"/>
<path d="M274.243 116.554V106.231H275.943V116.554H274.243ZM277.78 115.173C278.519 115.173 279.146 115.026 279.663 114.733C280.189 114.429 280.589 113.999 280.862 113.442C281.145 112.875 281.287 112.197 281.287 111.408C281.287 110.608 281.145 109.925 280.862 109.359C280.589 108.792 280.189 108.362 279.663 108.068C279.146 107.765 278.519 107.613 277.78 107.613H275.473V106.231H277.78C278.863 106.231 279.794 106.439 280.573 106.854C281.353 107.269 281.955 107.861 282.38 108.63C282.805 109.399 283.018 110.325 283.018 111.408C283.018 112.481 282.805 113.402 282.38 114.171C281.955 114.94 281.353 115.532 280.573 115.947C279.794 116.352 278.863 116.554 277.78 116.554H275.473V115.173H277.78ZM290.793 111.712L289.867 112.471C289.867 111.55 289.684 110.841 289.32 110.345C288.956 109.849 288.435 109.601 287.757 109.601C287.068 109.601 286.542 109.854 286.178 110.36C285.824 110.856 285.646 111.575 285.646 112.516C285.646 113.437 285.834 114.151 286.208 114.657C286.593 115.153 287.134 115.4 287.832 115.4C288.349 115.4 288.779 115.279 289.123 115.036C289.477 114.793 289.725 114.419 289.867 113.913H291.567C291.344 114.854 290.899 115.562 290.231 116.038C289.573 116.514 288.774 116.752 287.832 116.752C287.043 116.752 286.36 116.585 285.783 116.251C285.206 115.906 284.761 115.416 284.447 114.778C284.144 114.14 283.992 113.386 283.992 112.516C283.992 111.595 284.144 110.821 284.447 110.193C284.761 109.556 285.201 109.075 285.768 108.751C286.335 108.417 286.998 108.25 287.757 108.25C288.536 108.25 289.204 108.422 289.76 108.766C290.317 109.1 290.747 109.576 291.051 110.193C291.354 110.811 291.506 111.555 291.506 112.425V112.82H284.66V111.712H290.793ZM292.966 114.14V106.596H294.59V114.049C294.59 114.515 294.682 114.859 294.864 115.082C295.056 115.304 295.43 115.416 295.987 115.416H296.306V116.6C296.225 116.65 296.088 116.686 295.896 116.706C295.714 116.736 295.511 116.752 295.289 116.752C294.51 116.752 293.928 116.534 293.543 116.099C293.158 115.664 292.966 115.011 292.966 114.14ZM291.873 109.723V108.463H296.336V109.723H291.873ZM303.584 111.712L302.658 112.471C302.658 111.55 302.475 110.841 302.111 110.345C301.747 109.849 301.226 109.601 300.547 109.601C299.859 109.601 299.333 109.854 298.969 110.36C298.614 110.856 298.437 111.575 298.437 112.516C298.437 113.437 298.625 114.151 298.999 114.657C299.384 115.153 299.925 115.4 300.623 115.4C301.14 115.4 301.57 115.279 301.914 115.036C302.268 114.793 302.516 114.419 302.658 113.913H304.358C304.135 114.854 303.69 115.562 303.022 116.038C302.364 116.514 301.565 116.752 300.623 116.752C299.834 116.752 299.151 116.585 298.574 116.251C297.997 115.906 297.552 115.416 297.238 114.778C296.934 114.14 296.783 113.386 296.783 112.516C296.783 111.595 296.934 110.821 297.238 110.193C297.552 109.556 297.992 109.075 298.559 108.751C299.126 108.417 299.788 108.25 300.547 108.25C301.327 108.25 301.995 108.422 302.551 108.766C303.108 109.1 303.538 109.576 303.842 110.193C304.145 110.811 304.297 111.555 304.297 112.425V112.82H297.451V111.712H303.584ZM312.391 111.286H310.767C310.666 110.71 310.443 110.29 310.099 110.026C309.765 109.753 309.36 109.617 308.884 109.617C308.206 109.617 307.69 109.865 307.336 110.36C306.982 110.856 306.805 111.575 306.805 112.516C306.805 113.437 306.987 114.151 307.351 114.657C307.726 115.153 308.252 115.4 308.93 115.4C309.416 115.4 309.82 115.269 310.144 115.006C310.478 114.743 310.706 114.353 310.827 113.837H312.437C312.265 114.849 311.855 115.588 311.207 116.053C310.569 116.519 309.8 116.752 308.899 116.752C308.12 116.752 307.452 116.585 306.896 116.251C306.339 115.906 305.909 115.416 305.605 114.778C305.302 114.14 305.15 113.386 305.15 112.516C305.15 111.595 305.302 110.821 305.605 110.193C305.909 109.556 306.339 109.075 306.896 108.751C307.452 108.417 308.115 108.25 308.884 108.25C309.492 108.25 310.043 108.367 310.539 108.599C311.035 108.822 311.445 109.156 311.769 109.601C312.093 110.047 312.3 110.608 312.391 111.286ZM313.783 114.14V106.596H315.408V114.049C315.408 114.515 315.499 114.859 315.681 115.082C315.873 115.304 316.248 115.416 316.804 115.416H317.123V116.6C317.042 116.65 316.905 116.686 316.713 116.706C316.531 116.736 316.329 116.752 316.106 116.752C315.327 116.752 314.745 116.534 314.36 116.099C313.976 115.664 313.783 115.011 313.783 114.14ZM312.69 109.723V108.463H317.153V109.723H312.69ZM324.401 111.712L323.475 112.471C323.475 111.55 323.293 110.841 322.928 110.345C322.564 109.849 322.043 109.601 321.365 109.601C320.676 109.601 320.15 109.854 319.786 110.36C319.432 110.856 319.255 111.575 319.255 112.516C319.255 113.437 319.442 114.151 319.816 114.657C320.201 115.153 320.742 115.4 321.441 115.4C321.957 115.4 322.387 115.279 322.731 115.036C323.085 114.793 323.333 114.419 323.475 113.913H325.175C324.952 114.854 324.507 115.562 323.839 116.038C323.181 116.514 322.382 116.752 321.441 116.752C320.651 116.752 319.968 116.585 319.391 116.251C318.814 115.906 318.369 115.416 318.055 114.778C317.752 114.14 317.6 113.386 317.6 112.516C317.6 111.595 317.752 110.821 318.055 110.193C318.369 109.556 318.809 109.075 319.376 108.751C319.943 108.417 320.606 108.25 321.365 108.25C322.144 108.25 322.812 108.422 323.369 108.766C323.925 109.1 324.355 109.576 324.659 110.193C324.962 110.811 325.114 111.555 325.114 112.425V112.82H318.268V111.712H324.401ZM329.398 116.752C328.689 116.752 328.077 116.585 327.561 116.251C327.045 115.906 326.65 115.416 326.377 114.778C326.104 114.14 325.967 113.386 325.967 112.516C325.967 111.14 326.276 110.087 326.893 109.359C327.51 108.62 328.345 108.25 329.398 108.25C330.309 108.25 331.032 108.615 331.569 109.343C332.115 110.072 332.388 111.13 332.388 112.516C332.388 113.386 332.267 114.14 332.024 114.778C331.781 115.406 331.432 115.891 330.977 116.235C330.531 116.58 330.005 116.752 329.398 116.752ZM329.61 115.385C330.258 115.385 330.749 115.142 331.083 114.657C331.427 114.161 331.599 113.447 331.599 112.516C331.599 111.585 331.422 110.872 331.068 110.376C330.724 109.87 330.238 109.617 329.61 109.617C328.963 109.617 328.467 109.865 328.123 110.36C327.789 110.856 327.622 111.575 327.622 112.516C327.622 113.437 327.794 114.146 328.138 114.641C328.492 115.137 328.983 115.385 329.61 115.385ZM331.599 116.554V105.624H333.223V116.554H331.599Z" fill="#ADB9D2"/>
</g>
<defs>
<linearGradient id="paint0_linear_211_8274" x1="180" y1="81.0653" x2="180" y2="147.964" gradientUnits="userSpaceOnUse">
<stop stop-color="#D9D9D9"/>
<stop offset="1" stop-color="#737373" stop-opacity="0"/>
</linearGradient>
<clipPath id="clip0_211_8274">
<rect width="17.3494" height="17.3494" fill="white" transform="translate(27.1084 63.0361)"/>
</clipPath>
<clipPath id="clip1_211_8274">
<rect width="19.5181" height="19.5181" fill="white" transform="translate(26.0239 101.795)"/>
</clipPath>
<clipPath id="clip2_211_8274">
<rect width="8.3875" height="12.2" fill="white" transform="translate(31.9585 105.918)"/>
</clipPath>
</defs>
</svg>
